<?xml version="1.0" encoding="utf-8" standalone="no"?>
<!DOCTYPE svg PUBLIC "-//W3C//DTD SVG 1.1//EN"
  "http://www.w3.org/Graphics/SVG/1.1/DTD/svg11.dtd">
<!-- Created with matplotlib (http://matplotlib.org/) -->
<svg height="720pt" version="1.1" viewBox="0 0 1152 720" width="1152pt" xmlns="http://www.w3.org/2000/svg" xmlns:xlink="http://www.w3.org/1999/xlink">
 <defs>
  <style type="text/css">
*{stroke-linecap:butt;stroke-linejoin:round;}
  </style>
 </defs>
 <g id="figure_1">
  <g id="patch_1">
   <path d="M 0 720 
L 1152 720 
L 1152 0 
L 0 0 
z
" style="fill:#ffffff;"/>
  </g>
  <g id="axes_1">
   <g id="patch_2">
    <path d="M 13.32 692.12 
L 562.68 692.12 
L 562.68 26.88 
L 13.32 26.88 
z
" style="fill:#ffffff;"/>
   </g>
   <g id="table_1">
    <g id="patch_3">
     <path d="M 562.68 58.558095 
L 864.828 58.558095 
L 864.828 26.88 
L 562.68 26.88 
z
" style="fill:#ffffff;stroke:#000000;stroke-linejoin:miter;"/>
    </g>
    <g id="text_1">
     <!-- player -->
     <defs>
      <path d="M 18.109375 8.203125 
L 18.109375 -20.796875 
L 9.078125 -20.796875 
L 9.078125 54.6875 
L 18.109375 54.6875 
L 18.109375 46.390625 
Q 20.953125 51.265625 25.265625 53.625 
Q 29.59375 56 35.59375 56 
Q 45.5625 56 51.78125 48.09375 
Q 58.015625 40.1875 58.015625 27.296875 
Q 58.015625 14.40625 51.78125 6.484375 
Q 45.5625 -1.421875 35.59375 -1.421875 
Q 29.59375 -1.421875 25.265625 0.953125 
Q 20.953125 3.328125 18.109375 8.203125 
M 48.6875 27.296875 
Q 48.6875 37.203125 44.609375 42.84375 
Q 40.53125 48.484375 33.40625 48.484375 
Q 26.265625 48.484375 22.1875 42.84375 
Q 18.109375 37.203125 18.109375 27.296875 
Q 18.109375 17.390625 22.1875 11.75 
Q 26.265625 6.109375 33.40625 6.109375 
Q 40.53125 6.109375 44.609375 11.75 
Q 48.6875 17.390625 48.6875 27.296875 
" id="DejaVuSans-70"/>
      <path d="M 9.421875 75.984375 
L 18.40625 75.984375 
L 18.40625 0 
L 9.421875 0 
z
" id="DejaVuSans-6c"/>
      <path d="M 34.28125 27.484375 
Q 23.390625 27.484375 19.1875 25 
Q 14.984375 22.515625 14.984375 16.5 
Q 14.984375 11.71875 18.140625 8.90625 
Q 21.296875 6.109375 26.703125 6.109375 
Q 34.1875 6.109375 38.703125 11.40625 
Q 43.21875 16.703125 43.21875 25.484375 
L 43.21875 27.484375 
z
M 52.203125 31.203125 
L 52.203125 0 
L 43.21875 0 
L 43.21875 8.296875 
Q 40.140625 3.328125 35.546875 0.953125 
Q 30.953125 -1.421875 24.3125 -1.421875 
Q 15.921875 -1.421875 10.953125 3.296875 
Q 6 8.015625 6 15.921875 
Q 6 25.140625 12.171875 29.828125 
Q 18.359375 34.515625 30.609375 34.515625 
L 43.21875 34.515625 
L 43.21875 35.40625 
Q 43.21875 41.609375 39.140625 45 
Q 35.0625 48.390625 27.6875 48.390625 
Q 23 48.390625 18.546875 47.265625 
Q 14.109375 46.140625 10.015625 43.890625 
L 10.015625 52.203125 
Q 14.9375 54.109375 19.578125 55.046875 
Q 24.21875 56 28.609375 56 
Q 40.484375 56 46.34375 49.84375 
Q 52.203125 43.703125 52.203125 31.203125 
" id="DejaVuSans-61"/>
      <path d="M 32.171875 -5.078125 
Q 28.375 -14.84375 24.75 -17.8125 
Q 21.140625 -20.796875 15.09375 -20.796875 
L 7.90625 -20.796875 
L 7.90625 -13.28125 
L 13.1875 -13.28125 
Q 16.890625 -13.28125 18.9375 -11.515625 
Q 21 -9.765625 23.484375 -3.21875 
L 25.09375 0.875 
L 2.984375 54.6875 
L 12.5 54.6875 
L 29.59375 11.921875 
L 46.6875 54.6875 
L 56.203125 54.6875 
z
" id="DejaVuSans-79"/>
      <path d="M 56.203125 29.59375 
L 56.203125 25.203125 
L 14.890625 25.203125 
Q 15.484375 15.921875 20.484375 11.0625 
Q 25.484375 6.203125 34.421875 6.203125 
Q 39.59375 6.203125 44.453125 7.46875 
Q 49.3125 8.734375 54.109375 11.28125 
L 54.109375 2.78125 
Q 49.265625 0.734375 44.1875 -0.34375 
Q 39.109375 -1.421875 33.890625 -1.421875 
Q 20.796875 -1.421875 13.15625 6.1875 
Q 5.515625 13.8125 5.515625 26.8125 
Q 5.515625 40.234375 12.765625 48.109375 
Q 20.015625 56 32.328125 56 
Q 43.359375 56 49.78125 48.890625 
Q 56.203125 41.796875 56.203125 29.59375 
M 47.21875 32.234375 
Q 47.125 39.59375 43.09375 43.984375 
Q 39.0625 48.390625 32.421875 48.390625 
Q 24.90625 48.390625 20.390625 44.140625 
Q 15.875 39.890625 15.1875 32.171875 
z
" id="DejaVuSans-65"/>
      <path d="M 41.109375 46.296875 
Q 39.59375 47.171875 37.8125 47.578125 
Q 36.03125 48 33.890625 48 
Q 26.265625 48 22.1875 43.046875 
Q 18.109375 38.09375 18.109375 28.8125 
L 18.109375 0 
L 9.078125 0 
L 9.078125 54.6875 
L 18.109375 54.6875 
L 18.109375 46.1875 
Q 20.953125 51.171875 25.484375 53.578125 
Q 30.03125 56 36.53125 56 
Q 37.453125 56 38.578125 55.875 
Q 39.703125 55.765625 41.0625 55.515625 
z
" id="DejaVuSans-72"/>
     </defs>
     <g transform="translate(592.8948 47.409985)scale(0.17 -0.17)">
      <use xlink:href="#DejaVuSans-70"/>
      <use x="63.476562" xlink:href="#DejaVuSans-6c"/>
      <use x="91.259766" xlink:href="#DejaVuSans-61"/>
      <use x="152.539062" xlink:href="#DejaVuSans-79"/>
      <use x="211.71875" xlink:href="#DejaVuSans-65"/>
      <use x="273.242188" xlink:href="#DejaVuSans-72"/>
     </g>
    </g>
    <g id="patch_4">
     <path d="M 864.828 58.558095 
L 1166.976 58.558095 
L 1166.976 26.88 
L 864.828 26.88 
z
" style="fill:#ffffff;stroke:#000000;stroke-linejoin:miter;"/>
    </g>
    <g id="text_2">
     <!-- player -->
     <g transform="translate(895.0428 47.409985)scale(0.17 -0.17)">
      <use xlink:href="#DejaVuSans-70"/>
      <use x="63.476562" xlink:href="#DejaVuSans-6c"/>
      <use x="91.259766" xlink:href="#DejaVuSans-61"/>
      <use x="152.539062" xlink:href="#DejaVuSans-79"/>
      <use x="211.71875" xlink:href="#DejaVuSans-65"/>
      <use x="273.242188" xlink:href="#DejaVuSans-72"/>
     </g>
    </g>
    <g id="patch_5">
     <path d="M 562.68 90.23619 
L 864.828 90.23619 
L 864.828 58.558095 
L 562.68 58.558095 
z
" style="fill:#ffffff;stroke:#000000;stroke-linejoin:miter;"/>
    </g>
    <g id="text_3">
     <!-- Gordon Hayward -->
     <defs>
      <path d="M 59.515625 10.40625 
L 59.515625 29.984375 
L 43.40625 29.984375 
L 43.40625 38.09375 
L 69.28125 38.09375 
L 69.28125 6.78125 
Q 63.578125 2.734375 56.6875 0.65625 
Q 49.8125 -1.421875 42 -1.421875 
Q 24.90625 -1.421875 15.25 8.5625 
Q 5.609375 18.5625 5.609375 36.375 
Q 5.609375 54.25 15.25 64.234375 
Q 24.90625 74.21875 42 74.21875 
Q 49.125 74.21875 55.546875 72.453125 
Q 61.96875 70.703125 67.390625 67.28125 
L 67.390625 56.78125 
Q 61.921875 61.421875 55.765625 63.765625 
Q 49.609375 66.109375 42.828125 66.109375 
Q 29.4375 66.109375 22.71875 58.640625 
Q 16.015625 51.171875 16.015625 36.375 
Q 16.015625 21.625 22.71875 14.15625 
Q 29.4375 6.6875 42.828125 6.6875 
Q 48.046875 6.6875 52.140625 7.59375 
Q 56.25 8.5 59.515625 10.40625 
" id="DejaVuSans-47"/>
      <path d="M 30.609375 48.390625 
Q 23.390625 48.390625 19.1875 42.75 
Q 14.984375 37.109375 14.984375 27.296875 
Q 14.984375 17.484375 19.15625 11.84375 
Q 23.34375 6.203125 30.609375 6.203125 
Q 37.796875 6.203125 41.984375 11.859375 
Q 46.1875 17.53125 46.1875 27.296875 
Q 46.1875 37.015625 41.984375 42.703125 
Q 37.796875 48.390625 30.609375 48.390625 
M 30.609375 56 
Q 42.328125 56 49.015625 48.375 
Q 55.71875 40.765625 55.71875 27.296875 
Q 55.71875 13.875 49.015625 6.21875 
Q 42.328125 -1.421875 30.609375 -1.421875 
Q 18.84375 -1.421875 12.171875 6.21875 
Q 5.515625 13.875 5.515625 27.296875 
Q 5.515625 40.765625 12.171875 48.375 
Q 18.84375 56 30.609375 56 
" id="DejaVuSans-6f"/>
      <path d="M 45.40625 46.390625 
L 45.40625 75.984375 
L 54.390625 75.984375 
L 54.390625 0 
L 45.40625 0 
L 45.40625 8.203125 
Q 42.578125 3.328125 38.25 0.953125 
Q 33.9375 -1.421875 27.875 -1.421875 
Q 17.96875 -1.421875 11.734375 6.484375 
Q 5.515625 14.40625 5.515625 27.296875 
Q 5.515625 40.1875 11.734375 48.09375 
Q 17.96875 56 27.875 56 
Q 33.9375 56 38.25 53.625 
Q 42.578125 51.265625 45.40625 46.390625 
M 14.796875 27.296875 
Q 14.796875 17.390625 18.875 11.75 
Q 22.953125 6.109375 30.078125 6.109375 
Q 37.203125 6.109375 41.296875 11.75 
Q 45.40625 17.390625 45.40625 27.296875 
Q 45.40625 37.203125 41.296875 42.84375 
Q 37.203125 48.484375 30.078125 48.484375 
Q 22.953125 48.484375 18.875 42.84375 
Q 14.796875 37.203125 14.796875 27.296875 
" id="DejaVuSans-64"/>
      <path d="M 54.890625 33.015625 
L 54.890625 0 
L 45.90625 0 
L 45.90625 32.71875 
Q 45.90625 40.484375 42.875 44.328125 
Q 39.84375 48.1875 33.796875 48.1875 
Q 26.515625 48.1875 22.3125 43.546875 
Q 18.109375 38.921875 18.109375 30.90625 
L 18.109375 0 
L 9.078125 0 
L 9.078125 54.6875 
L 18.109375 54.6875 
L 18.109375 46.1875 
Q 21.34375 51.125 25.703125 53.5625 
Q 30.078125 56 35.796875 56 
Q 45.21875 56 50.046875 50.171875 
Q 54.890625 44.34375 54.890625 33.015625 
" id="DejaVuSans-6e"/>
      <path id="DejaVuSans-20"/>
      <path d="M 9.8125 72.90625 
L 19.671875 72.90625 
L 19.671875 43.015625 
L 55.515625 43.015625 
L 55.515625 72.90625 
L 65.375 72.90625 
L 65.375 0 
L 55.515625 0 
L 55.515625 34.71875 
L 19.671875 34.71875 
L 19.671875 0 
L 9.8125 0 
z
" id="DejaVuSans-48"/>
      <path d="M 4.203125 54.6875 
L 13.1875 54.6875 
L 24.421875 12.015625 
L 35.59375 54.6875 
L 46.1875 54.6875 
L 57.421875 12.015625 
L 68.609375 54.6875 
L 77.59375 54.6875 
L 63.28125 0 
L 52.6875 0 
L 40.921875 44.828125 
L 29.109375 0 
L 18.5 0 
z
" id="DejaVuSans-77"/>
     </defs>
     <g transform="translate(592.8948 79.08808)scale(0.17 -0.17)">
      <use xlink:href="#DejaVuSans-47"/>
      <use x="77.490234" xlink:href="#DejaVuSans-6f"/>
      <use x="138.671875" xlink:href="#DejaVuSans-72"/>
      <use x="179.769531" xlink:href="#DejaVuSans-64"/>
      <use x="243.246094" xlink:href="#DejaVuSans-6f"/>
      <use x="304.427734" xlink:href="#DejaVuSans-6e"/>
      <use x="367.806641" xlink:href="#DejaVuSans-20"/>
      <use x="399.59375" xlink:href="#DejaVuSans-48"/>
      <use x="474.789062" xlink:href="#DejaVuSans-61"/>
      <use x="536.068359" xlink:href="#DejaVuSans-79"/>
      <use x="595.248047" xlink:href="#DejaVuSans-77"/>
      <use x="677.035156" xlink:href="#DejaVuSans-61"/>
      <use x="738.314453" xlink:href="#DejaVuSans-72"/>
      <use x="779.412109" xlink:href="#DejaVuSans-64"/>
     </g>
    </g>
    <g id="patch_6">
     <path d="M 864.828 90.23619 
L 1166.976 90.23619 
L 1166.976 58.558095 
L 864.828 58.558095 
z
" style="fill:#ffffff;stroke:#000000;stroke-linejoin:miter;"/>
    </g>
    <g id="text_4">
     <!-- Langston Galloway -->
     <defs>
      <path d="M 9.8125 72.90625 
L 19.671875 72.90625 
L 19.671875 8.296875 
L 55.171875 8.296875 
L 55.171875 0 
L 9.8125 0 
z
" id="DejaVuSans-4c"/>
      <path d="M 45.40625 27.984375 
Q 45.40625 37.75 41.375 43.109375 
Q 37.359375 48.484375 30.078125 48.484375 
Q 22.859375 48.484375 18.828125 43.109375 
Q 14.796875 37.75 14.796875 27.984375 
Q 14.796875 18.265625 18.828125 12.890625 
Q 22.859375 7.515625 30.078125 7.515625 
Q 37.359375 7.515625 41.375 12.890625 
Q 45.40625 18.265625 45.40625 27.984375 
M 54.390625 6.78125 
Q 54.390625 -7.171875 48.1875 -13.984375 
Q 42 -20.796875 29.203125 -20.796875 
Q 24.46875 -20.796875 20.265625 -20.09375 
Q 16.0625 -19.390625 12.109375 -17.921875 
L 12.109375 -9.1875 
Q 16.0625 -11.328125 19.921875 -12.34375 
Q 23.78125 -13.375 27.78125 -13.375 
Q 36.625 -13.375 41.015625 -8.765625 
Q 45.40625 -4.15625 45.40625 5.171875 
L 45.40625 9.625 
Q 42.625 4.78125 38.28125 2.390625 
Q 33.9375 0 27.875 0 
Q 17.828125 0 11.671875 7.65625 
Q 5.515625 15.328125 5.515625 27.984375 
Q 5.515625 40.671875 11.671875 48.328125 
Q 17.828125 56 27.875 56 
Q 33.9375 56 38.28125 53.609375 
Q 42.625 51.21875 45.40625 46.390625 
L 45.40625 54.6875 
L 54.390625 54.6875 
z
" id="DejaVuSans-67"/>
      <path d="M 44.28125 53.078125 
L 44.28125 44.578125 
Q 40.484375 46.53125 36.375 47.5 
Q 32.28125 48.484375 27.875 48.484375 
Q 21.1875 48.484375 17.84375 46.4375 
Q 14.5 44.390625 14.5 40.28125 
Q 14.5 37.15625 16.890625 35.375 
Q 19.28125 33.59375 26.515625 31.984375 
L 29.59375 31.296875 
Q 39.15625 29.25 43.1875 25.515625 
Q 47.21875 21.78125 47.21875 15.09375 
Q 47.21875 7.46875 41.1875 3.015625 
Q 35.15625 -1.421875 24.609375 -1.421875 
Q 20.21875 -1.421875 15.453125 -0.5625 
Q 10.6875 0.296875 5.421875 2 
L 5.421875 11.28125 
Q 10.40625 8.6875 15.234375 7.390625 
Q 20.0625 6.109375 24.8125 6.109375 
Q 31.15625 6.109375 34.5625 8.28125 
Q 37.984375 10.453125 37.984375 14.40625 
Q 37.984375 18.0625 35.515625 20.015625 
Q 33.0625 21.96875 24.703125 23.78125 
L 21.578125 24.515625 
Q 13.234375 26.265625 9.515625 29.90625 
Q 5.8125 33.546875 5.8125 39.890625 
Q 5.8125 47.609375 11.28125 51.796875 
Q 16.75 56 26.8125 56 
Q 31.78125 56 36.171875 55.265625 
Q 40.578125 54.546875 44.28125 53.078125 
" id="DejaVuSans-73"/>
      <path d="M 18.3125 70.21875 
L 18.3125 54.6875 
L 36.8125 54.6875 
L 36.8125 47.703125 
L 18.3125 47.703125 
L 18.3125 18.015625 
Q 18.3125 11.328125 20.140625 9.421875 
Q 21.96875 7.515625 27.59375 7.515625 
L 36.8125 7.515625 
L 36.8125 0 
L 27.59375 0 
Q 17.1875 0 13.234375 3.875 
Q 9.28125 7.765625 9.28125 18.015625 
L 9.28125 47.703125 
L 2.6875 47.703125 
L 2.6875 54.6875 
L 9.28125 54.6875 
L 9.28125 70.21875 
z
" id="DejaVuSans-74"/>
     </defs>
     <g transform="translate(895.0428 79.08808)scale(0.17 -0.17)">
      <use xlink:href="#DejaVuSans-4c"/>
      <use x="55.712891" xlink:href="#DejaVuSans-61"/>
      <use x="116.992188" xlink:href="#DejaVuSans-6e"/>
      <use x="180.371094" xlink:href="#DejaVuSans-67"/>
      <use x="243.847656" xlink:href="#DejaVuSans-73"/>
      <use x="295.947266" xlink:href="#DejaVuSans-74"/>
      <use x="335.15625" xlink:href="#DejaVuSans-6f"/>
      <use x="396.337891" xlink:href="#DejaVuSans-6e"/>
      <use x="459.716797" xlink:href="#DejaVuSans-20"/>
      <use x="491.503906" xlink:href="#DejaVuSans-47"/>
      <use x="568.994141" xlink:href="#DejaVuSans-61"/>
      <use x="630.273438" xlink:href="#DejaVuSans-6c"/>
      <use x="658.056641" xlink:href="#DejaVuSans-6c"/>
      <use x="685.839844" xlink:href="#DejaVuSans-6f"/>
      <use x="747.021484" xlink:href="#DejaVuSans-77"/>
      <use x="828.808594" xlink:href="#DejaVuSans-61"/>
      <use x="890.087891" xlink:href="#DejaVuSans-79"/>
     </g>
    </g>
    <g id="patch_7">
     <path d="M 562.68 121.914286 
L 864.828 121.914286 
L 864.828 90.23619 
L 562.68 90.23619 
z
" style="fill:#ffffff;stroke:#000000;stroke-linejoin:miter;"/>
    </g>
    <g id="text_5">
     <!-- Kentavious Caldwell-Pope -->
     <defs>
      <path d="M 9.8125 72.90625 
L 19.671875 72.90625 
L 19.671875 42.09375 
L 52.390625 72.90625 
L 65.09375 72.90625 
L 28.90625 38.921875 
L 67.671875 0 
L 54.6875 0 
L 19.671875 35.109375 
L 19.671875 0 
L 9.8125 0 
z
" id="DejaVuSans-4b"/>
      <path d="M 2.984375 54.6875 
L 12.5 54.6875 
L 29.59375 8.796875 
L 46.6875 54.6875 
L 56.203125 54.6875 
L 35.6875 0 
L 23.484375 0 
z
" id="DejaVuSans-76"/>
      <path d="M 9.421875 54.6875 
L 18.40625 54.6875 
L 18.40625 0 
L 9.421875 0 
z
M 9.421875 75.984375 
L 18.40625 75.984375 
L 18.40625 64.59375 
L 9.421875 64.59375 
z
" id="DejaVuSans-69"/>
      <path d="M 8.5 21.578125 
L 8.5 54.6875 
L 17.484375 54.6875 
L 17.484375 21.921875 
Q 17.484375 14.15625 20.5 10.265625 
Q 23.53125 6.390625 29.59375 6.390625 
Q 36.859375 6.390625 41.078125 11.03125 
Q 45.3125 15.671875 45.3125 23.6875 
L 45.3125 54.6875 
L 54.296875 54.6875 
L 54.296875 0 
L 45.3125 0 
L 45.3125 8.40625 
Q 42.046875 3.421875 37.71875 1 
Q 33.40625 -1.421875 27.6875 -1.421875 
Q 18.265625 -1.421875 13.375 4.4375 
Q 8.5 10.296875 8.5 21.578125 
M 31.109375 56 
z
" id="DejaVuSans-75"/>
      <path d="M 64.40625 67.28125 
L 64.40625 56.890625 
Q 59.421875 61.53125 53.78125 63.8125 
Q 48.140625 66.109375 41.796875 66.109375 
Q 29.296875 66.109375 22.65625 58.46875 
Q 16.015625 50.828125 16.015625 36.375 
Q 16.015625 21.96875 22.65625 14.328125 
Q 29.296875 6.6875 41.796875 6.6875 
Q 48.140625 6.6875 53.78125 8.984375 
Q 59.421875 11.28125 64.40625 15.921875 
L 64.40625 5.609375 
Q 59.234375 2.09375 53.4375 0.328125 
Q 47.65625 -1.421875 41.21875 -1.421875 
Q 24.65625 -1.421875 15.125 8.703125 
Q 5.609375 18.84375 5.609375 36.375 
Q 5.609375 53.953125 15.125 64.078125 
Q 24.65625 74.21875 41.21875 74.21875 
Q 47.75 74.21875 53.53125 72.484375 
Q 59.328125 70.75 64.40625 67.28125 
" id="DejaVuSans-43"/>
      <path d="M 4.890625 31.390625 
L 31.203125 31.390625 
L 31.203125 23.390625 
L 4.890625 23.390625 
z
" id="DejaVuSans-2d"/>
      <path d="M 19.671875 64.796875 
L 19.671875 37.40625 
L 32.078125 37.40625 
Q 38.96875 37.40625 42.71875 40.96875 
Q 46.484375 44.53125 46.484375 51.125 
Q 46.484375 57.671875 42.71875 61.234375 
Q 38.96875 64.796875 32.078125 64.796875 
z
M 9.8125 72.90625 
L 32.078125 72.90625 
Q 44.34375 72.90625 50.609375 67.359375 
Q 56.890625 61.8125 56.890625 51.125 
Q 56.890625 40.328125 50.609375 34.8125 
Q 44.34375 29.296875 32.078125 29.296875 
L 19.671875 29.296875 
L 19.671875 0 
L 9.8125 0 
z
" id="DejaVuSans-50"/>
     </defs>
     <g transform="translate(592.8948 110.766176)scale(0.17 -0.17)">
      <use xlink:href="#DejaVuSans-4b"/>
      <use x="65.498047" xlink:href="#DejaVuSans-65"/>
      <use x="127.021484" xlink:href="#DejaVuSans-6e"/>
      <use x="190.400391" xlink:href="#DejaVuSans-74"/>
      <use x="229.609375" xlink:href="#DejaVuSans-61"/>
      <use x="290.888672" xlink:href="#DejaVuSans-76"/>
      <use x="350.068359" xlink:href="#DejaVuSans-69"/>
      <use x="377.851562" xlink:href="#DejaVuSans-6f"/>
      <use x="439.033203" xlink:href="#DejaVuSans-75"/>
      <use x="502.412109" xlink:href="#DejaVuSans-73"/>
      <use x="554.511719" xlink:href="#DejaVuSans-20"/>
      <use x="586.298828" xlink:href="#DejaVuSans-43"/>
      <use x="656.123047" xlink:href="#DejaVuSans-61"/>
      <use x="717.402344" xlink:href="#DejaVuSans-6c"/>
      <use x="745.185547" xlink:href="#DejaVuSans-64"/>
      <use x="808.662109" xlink:href="#DejaVuSans-77"/>
      <use x="890.449219" xlink:href="#DejaVuSans-65"/>
      <use x="951.972656" xlink:href="#DejaVuSans-6c"/>
      <use x="979.755859" xlink:href="#DejaVuSans-6c"/>
      <use x="1007.539062" xlink:href="#DejaVuSans-2d"/>
      <use x="1043.623047" xlink:href="#DejaVuSans-50"/>
      <use x="1103.878906" xlink:href="#DejaVuSans-6f"/>
      <use x="1165.060547" xlink:href="#DejaVuSans-70"/>
      <use x="1228.537109" xlink:href="#DejaVuSans-65"/>
     </g>
    </g>
    <g id="patch_8">
     <path d="M 864.828 121.914286 
L 1166.976 121.914286 
L 1166.976 90.23619 
L 864.828 90.23619 
z
" style="fill:#ffffff;stroke:#000000;stroke-linejoin:miter;"/>
    </g>
    <g id="text_6">
     <!-- Nick Young -->
     <defs>
      <path d="M 9.8125 72.90625 
L 23.09375 72.90625 
L 55.421875 11.921875 
L 55.421875 72.90625 
L 64.984375 72.90625 
L 64.984375 0 
L 51.703125 0 
L 19.390625 60.984375 
L 19.390625 0 
L 9.8125 0 
z
" id="DejaVuSans-4e"/>
      <path d="M 48.78125 52.59375 
L 48.78125 44.1875 
Q 44.96875 46.296875 41.140625 47.34375 
Q 37.3125 48.390625 33.40625 48.390625 
Q 24.65625 48.390625 19.8125 42.84375 
Q 14.984375 37.3125 14.984375 27.296875 
Q 14.984375 17.28125 19.8125 11.734375 
Q 24.65625 6.203125 33.40625 6.203125 
Q 37.3125 6.203125 41.140625 7.25 
Q 44.96875 8.296875 48.78125 10.40625 
L 48.78125 2.09375 
Q 45.015625 0.34375 40.984375 -0.53125 
Q 36.96875 -1.421875 32.421875 -1.421875 
Q 20.0625 -1.421875 12.78125 6.34375 
Q 5.515625 14.109375 5.515625 27.296875 
Q 5.515625 40.671875 12.859375 48.328125 
Q 20.21875 56 33.015625 56 
Q 37.15625 56 41.109375 55.140625 
Q 45.0625 54.296875 48.78125 52.59375 
" id="DejaVuSans-63"/>
      <path d="M 9.078125 75.984375 
L 18.109375 75.984375 
L 18.109375 31.109375 
L 44.921875 54.6875 
L 56.390625 54.6875 
L 27.390625 29.109375 
L 57.625 0 
L 45.90625 0 
L 18.109375 26.703125 
L 18.109375 0 
L 9.078125 0 
z
" id="DejaVuSans-6b"/>
      <path d="M -0.203125 72.90625 
L 10.40625 72.90625 
L 30.609375 42.921875 
L 50.6875 72.90625 
L 61.28125 72.90625 
L 35.5 34.71875 
L 35.5 0 
L 25.59375 0 
L 25.59375 34.71875 
z
" id="DejaVuSans-59"/>
     </defs>
     <g transform="translate(895.0428 110.766176)scale(0.17 -0.17)">
      <use xlink:href="#DejaVuSans-4e"/>
      <use x="74.804688" xlink:href="#DejaVuSans-69"/>
      <use x="102.587891" xlink:href="#DejaVuSans-63"/>
      <use x="157.568359" xlink:href="#DejaVuSans-6b"/>
      <use x="215.478516" xlink:href="#DejaVuSans-20"/>
      <use x="247.265625" xlink:href="#DejaVuSans-59"/>
      <use x="308.146484" xlink:href="#DejaVuSans-6f"/>
      <use x="369.328125" xlink:href="#DejaVuSans-75"/>
      <use x="432.707031" xlink:href="#DejaVuSans-6e"/>
      <use x="496.085938" xlink:href="#DejaVuSans-67"/>
     </g>
    </g>
    <g id="patch_9">
     <path d="M 562.68 153.592381 
L 864.828 153.592381 
L 864.828 121.914286 
L 562.68 121.914286 
z
" style="fill:#ffffff;stroke:#000000;stroke-linejoin:miter;"/>
    </g>
    <g id="text_7">
     <!-- Eric Gordon -->
     <defs>
      <path d="M 9.8125 72.90625 
L 55.90625 72.90625 
L 55.90625 64.59375 
L 19.671875 64.59375 
L 19.671875 43.015625 
L 54.390625 43.015625 
L 54.390625 34.71875 
L 19.671875 34.71875 
L 19.671875 8.296875 
L 56.78125 8.296875 
L 56.78125 0 
L 9.8125 0 
z
" id="DejaVuSans-45"/>
     </defs>
     <g transform="translate(592.8948 142.444271)scale(0.17 -0.17)">
      <use xlink:href="#DejaVuSans-45"/>
      <use x="63.183594" xlink:href="#DejaVuSans-72"/>
      <use x="104.296875" xlink:href="#DejaVuSans-69"/>
      <use x="132.080078" xlink:href="#DejaVuSans-63"/>
      <use x="187.060547" xlink:href="#DejaVuSans-20"/>
      <use x="218.847656" xlink:href="#DejaVuSans-47"/>
      <use x="296.337891" xlink:href="#DejaVuSans-6f"/>
      <use x="357.519531" xlink:href="#DejaVuSans-72"/>
      <use x="398.617188" xlink:href="#DejaVuSans-64"/>
      <use x="462.09375" xlink:href="#DejaVuSans-6f"/>
      <use x="523.275391" xlink:href="#DejaVuSans-6e"/>
     </g>
    </g>
    <g id="patch_10">
     <path d="M 864.828 153.592381 
L 1166.976 153.592381 
L 1166.976 121.914286 
L 864.828 121.914286 
z
" style="fill:#ffffff;stroke:#000000;stroke-linejoin:miter;"/>
    </g>
    <g id="text_8">
     <!-- Lance Stephenson -->
     <defs>
      <path d="M 53.515625 70.515625 
L 53.515625 60.890625 
Q 47.90625 63.578125 42.921875 64.890625 
Q 37.9375 66.21875 33.296875 66.21875 
Q 25.25 66.21875 20.875 63.09375 
Q 16.5 59.96875 16.5 54.203125 
Q 16.5 49.359375 19.40625 46.890625 
Q 22.3125 44.4375 30.421875 42.921875 
L 36.375 41.703125 
Q 47.40625 39.59375 52.65625 34.296875 
Q 57.90625 29 57.90625 20.125 
Q 57.90625 9.515625 50.796875 4.046875 
Q 43.703125 -1.421875 29.984375 -1.421875 
Q 24.8125 -1.421875 18.96875 -0.25 
Q 13.140625 0.921875 6.890625 3.21875 
L 6.890625 13.375 
Q 12.890625 10.015625 18.65625 8.296875 
Q 24.421875 6.59375 29.984375 6.59375 
Q 38.421875 6.59375 43.015625 9.90625 
Q 47.609375 13.234375 47.609375 19.390625 
Q 47.609375 24.75 44.3125 27.78125 
Q 41.015625 30.8125 33.5 32.328125 
L 27.484375 33.5 
Q 16.453125 35.6875 11.515625 40.375 
Q 6.59375 45.0625 6.59375 53.421875 
Q 6.59375 63.09375 13.40625 68.65625 
Q 20.21875 74.21875 32.171875 74.21875 
Q 37.3125 74.21875 42.625 73.28125 
Q 47.953125 72.359375 53.515625 70.515625 
" id="DejaVuSans-53"/>
      <path d="M 54.890625 33.015625 
L 54.890625 0 
L 45.90625 0 
L 45.90625 32.71875 
Q 45.90625 40.484375 42.875 44.328125 
Q 39.84375 48.1875 33.796875 48.1875 
Q 26.515625 48.1875 22.3125 43.546875 
Q 18.109375 38.921875 18.109375 30.90625 
L 18.109375 0 
L 9.078125 0 
L 9.078125 75.984375 
L 18.109375 75.984375 
L 18.109375 46.1875 
Q 21.34375 51.125 25.703125 53.5625 
Q 30.078125 56 35.796875 56 
Q 45.21875 56 50.046875 50.171875 
Q 54.890625 44.34375 54.890625 33.015625 
" id="DejaVuSans-68"/>
     </defs>
     <g transform="translate(895.0428 142.444271)scale(0.17 -0.17)">
      <use xlink:href="#DejaVuSans-4c"/>
      <use x="55.712891" xlink:href="#DejaVuSans-61"/>
      <use x="116.992188" xlink:href="#DejaVuSans-6e"/>
      <use x="180.371094" xlink:href="#DejaVuSans-63"/>
      <use x="235.351562" xlink:href="#DejaVuSans-65"/>
      <use x="296.875" xlink:href="#DejaVuSans-20"/>
      <use x="328.662109" xlink:href="#DejaVuSans-53"/>
      <use x="392.138672" xlink:href="#DejaVuSans-74"/>
      <use x="431.347656" xlink:href="#DejaVuSans-65"/>
      <use x="492.871094" xlink:href="#DejaVuSans-70"/>
      <use x="556.347656" xlink:href="#DejaVuSans-68"/>
      <use x="619.726562" xlink:href="#DejaVuSans-65"/>
      <use x="681.25" xlink:href="#DejaVuSans-6e"/>
      <use x="744.628906" xlink:href="#DejaVuSans-73"/>
      <use x="796.728516" xlink:href="#DejaVuSans-6f"/>
      <use x="857.910156" xlink:href="#DejaVuSans-6e"/>
     </g>
    </g>
    <g id="patch_11">
     <path d="M 562.68 185.270476 
L 864.828 185.270476 
L 864.828 153.592381 
L 562.68 153.592381 
z
" style="fill:#ffffff;stroke:#000000;stroke-linejoin:miter;"/>
    </g>
    <g id="text_9">
     <!-- Will Barton -->
     <defs>
      <path d="M 3.328125 72.90625 
L 13.28125 72.90625 
L 28.609375 11.28125 
L 43.890625 72.90625 
L 54.984375 72.90625 
L 70.3125 11.28125 
L 85.59375 72.90625 
L 95.609375 72.90625 
L 77.296875 0 
L 64.890625 0 
L 49.515625 63.28125 
L 33.984375 0 
L 21.578125 0 
z
" id="DejaVuSans-57"/>
      <path d="M 19.671875 34.8125 
L 19.671875 8.109375 
L 35.5 8.109375 
Q 43.453125 8.109375 47.28125 11.40625 
Q 51.125 14.703125 51.125 21.484375 
Q 51.125 28.328125 47.28125 31.5625 
Q 43.453125 34.8125 35.5 34.8125 
z
M 19.671875 64.796875 
L 19.671875 42.828125 
L 34.28125 42.828125 
Q 41.5 42.828125 45.03125 45.53125 
Q 48.578125 48.25 48.578125 53.8125 
Q 48.578125 59.328125 45.03125 62.0625 
Q 41.5 64.796875 34.28125 64.796875 
z
M 9.8125 72.90625 
L 35.015625 72.90625 
Q 46.296875 72.90625 52.390625 68.21875 
Q 58.5 63.53125 58.5 54.890625 
Q 58.5 48.1875 55.375 44.234375 
Q 52.25 40.28125 46.1875 39.3125 
Q 53.46875 37.75 57.5 32.78125 
Q 61.53125 27.828125 61.53125 20.40625 
Q 61.53125 10.640625 54.890625 5.3125 
Q 48.25 0 35.984375 0 
L 9.8125 0 
z
" id="DejaVuSans-42"/>
     </defs>
     <g transform="translate(592.8948 174.122366)scale(0.17 -0.17)">
      <use xlink:href="#DejaVuSans-57"/>
      <use x="98.845703" xlink:href="#DejaVuSans-69"/>
      <use x="126.628906" xlink:href="#DejaVuSans-6c"/>
      <use x="154.412109" xlink:href="#DejaVuSans-6c"/>
      <use x="182.195312" xlink:href="#DejaVuSans-20"/>
      <use x="213.982422" xlink:href="#DejaVuSans-42"/>
      <use x="282.585938" xlink:href="#DejaVuSans-61"/>
      <use x="343.865234" xlink:href="#DejaVuSans-72"/>
      <use x="384.978516" xlink:href="#DejaVuSans-74"/>
      <use x="424.1875" xlink:href="#DejaVuSans-6f"/>
      <use x="485.369141" xlink:href="#DejaVuSans-6e"/>
     </g>
    </g>
    <g id="patch_12">
     <path d="M 864.828 185.270476 
L 1166.976 185.270476 
L 1166.976 153.592381 
L 864.828 153.592381 
z
" style="fill:#ffffff;stroke:#000000;stroke-linejoin:miter;"/>
    </g>
    <g id="text_10">
     <!-- E'Twaun Moore -->
     <defs>
      <path d="M 17.921875 72.90625 
L 17.921875 45.796875 
L 9.625 45.796875 
L 9.625 72.90625 
z
" id="DejaVuSans-27"/>
      <path d="M -0.296875 72.90625 
L 61.375 72.90625 
L 61.375 64.59375 
L 35.5 64.59375 
L 35.5 0 
L 25.59375 0 
L 25.59375 64.59375 
L -0.296875 64.59375 
z
" id="DejaVuSans-54"/>
      <path d="M 9.8125 72.90625 
L 24.515625 72.90625 
L 43.109375 23.296875 
L 61.8125 72.90625 
L 76.515625 72.90625 
L 76.515625 0 
L 66.890625 0 
L 66.890625 64.015625 
L 48.09375 14.015625 
L 38.1875 14.015625 
L 19.390625 64.015625 
L 19.390625 0 
L 9.8125 0 
z
" id="DejaVuSans-4d"/>
     </defs>
     <g transform="translate(895.0428 174.122366)scale(0.17 -0.17)">
      <use xlink:href="#DejaVuSans-45"/>
      <use x="63.183594" xlink:href="#DejaVuSans-27"/>
      <use x="90.673828" xlink:href="#DejaVuSans-54"/>
      <use x="151.507812" xlink:href="#DejaVuSans-77"/>
      <use x="233.294922" xlink:href="#DejaVuSans-61"/>
      <use x="294.574219" xlink:href="#DejaVuSans-75"/>
      <use x="357.953125" xlink:href="#DejaVuSans-6e"/>
      <use x="421.332031" xlink:href="#DejaVuSans-20"/>
      <use x="453.119141" xlink:href="#DejaVuSans-4d"/>
      <use x="539.398438" xlink:href="#DejaVuSans-6f"/>
      <use x="600.580078" xlink:href="#DejaVuSans-6f"/>
      <use x="661.761719" xlink:href="#DejaVuSans-72"/>
      <use x="702.84375" xlink:href="#DejaVuSans-65"/>
     </g>
    </g>
    <g id="patch_13">
     <path d="M 562.68 216.948571 
L 864.828 216.948571 
L 864.828 185.270476 
L 562.68 185.270476 
z
" style="fill:#ffffff;stroke:#000000;stroke-linejoin:miter;"/>
    </g>
    <g id="text_11">
     <!-- Evan Fournier -->
     <defs>
      <path d="M 9.8125 72.90625 
L 51.703125 72.90625 
L 51.703125 64.59375 
L 19.671875 64.59375 
L 19.671875 43.109375 
L 48.578125 43.109375 
L 48.578125 34.8125 
L 19.671875 34.8125 
L 19.671875 0 
L 9.8125 0 
z
" id="DejaVuSans-46"/>
     </defs>
     <g transform="translate(592.8948 205.800461)scale(0.17 -0.17)">
      <use xlink:href="#DejaVuSans-45"/>
      <use x="63.183594" xlink:href="#DejaVuSans-76"/>
      <use x="122.363281" xlink:href="#DejaVuSans-61"/>
      <use x="183.642578" xlink:href="#DejaVuSans-6e"/>
      <use x="247.021484" xlink:href="#DejaVuSans-20"/>
      <use x="278.808594" xlink:href="#DejaVuSans-46"/>
      <use x="336.28125" xlink:href="#DejaVuSans-6f"/>
      <use x="397.462891" xlink:href="#DejaVuSans-75"/>
      <use x="460.841797" xlink:href="#DejaVuSans-72"/>
      <use x="501.939453" xlink:href="#DejaVuSans-6e"/>
      <use x="565.318359" xlink:href="#DejaVuSans-69"/>
      <use x="593.101562" xlink:href="#DejaVuSans-65"/>
      <use x="654.625" xlink:href="#DejaVuSans-72"/>
     </g>
    </g>
    <g id="patch_14">
     <path d="M 864.828 216.948571 
L 1166.976 216.948571 
L 1166.976 185.270476 
L 864.828 185.270476 
z
" style="fill:#ffffff;stroke:#000000;stroke-linejoin:miter;"/>
    </g>
    <g id="text_12">
     <!-- Randy Foye -->
     <defs>
      <path d="M 44.390625 34.1875 
Q 47.5625 33.109375 50.5625 29.59375 
Q 53.5625 26.078125 56.59375 19.921875 
L 66.609375 0 
L 56 0 
L 46.6875 18.703125 
Q 43.0625 26.03125 39.671875 28.421875 
Q 36.28125 30.8125 30.421875 30.8125 
L 19.671875 30.8125 
L 19.671875 0 
L 9.8125 0 
L 9.8125 72.90625 
L 32.078125 72.90625 
Q 44.578125 72.90625 50.734375 67.671875 
Q 56.890625 62.453125 56.890625 51.90625 
Q 56.890625 45.015625 53.6875 40.46875 
Q 50.484375 35.9375 44.390625 34.1875 
M 19.671875 64.796875 
L 19.671875 38.921875 
L 32.078125 38.921875 
Q 39.203125 38.921875 42.84375 42.21875 
Q 46.484375 45.515625 46.484375 51.90625 
Q 46.484375 58.296875 42.84375 61.546875 
Q 39.203125 64.796875 32.078125 64.796875 
z
" id="DejaVuSans-52"/>
     </defs>
     <g transform="translate(895.0428 205.800461)scale(0.17 -0.17)">
      <use xlink:href="#DejaVuSans-52"/>
      <use x="69.451172" xlink:href="#DejaVuSans-61"/>
      <use x="130.730469" xlink:href="#DejaVuSans-6e"/>
      <use x="194.109375" xlink:href="#DejaVuSans-64"/>
      <use x="257.585938" xlink:href="#DejaVuSans-79"/>
      <use x="316.765625" xlink:href="#DejaVuSans-20"/>
      <use x="348.552734" xlink:href="#DejaVuSans-46"/>
      <use x="406.025391" xlink:href="#DejaVuSans-6f"/>
      <use x="467.207031" xlink:href="#DejaVuSans-79"/>
      <use x="526.386719" xlink:href="#DejaVuSans-65"/>
     </g>
    </g>
    <g id="patch_15">
     <path d="M 562.68 248.626667 
L 864.828 248.626667 
L 864.828 216.948571 
L 562.68 216.948571 
z
" style="fill:#ffffff;stroke:#000000;stroke-linejoin:miter;"/>
    </g>
    <g id="text_13">
     <!-- Chandler Parsons -->
     <g transform="translate(592.8948 237.478557)scale(0.17 -0.17)">
      <use xlink:href="#DejaVuSans-43"/>
      <use x="69.824219" xlink:href="#DejaVuSans-68"/>
      <use x="133.203125" xlink:href="#DejaVuSans-61"/>
      <use x="194.482422" xlink:href="#DejaVuSans-6e"/>
      <use x="257.861328" xlink:href="#DejaVuSans-64"/>
      <use x="321.337891" xlink:href="#DejaVuSans-6c"/>
      <use x="349.121094" xlink:href="#DejaVuSans-65"/>
      <use x="410.644531" xlink:href="#DejaVuSans-72"/>
      <use x="451.757812" xlink:href="#DejaVuSans-20"/>
      <use x="483.544922" xlink:href="#DejaVuSans-50"/>
      <use x="543.785156" xlink:href="#DejaVuSans-61"/>
      <use x="605.064453" xlink:href="#DejaVuSans-72"/>
      <use x="646.177734" xlink:href="#DejaVuSans-73"/>
      <use x="698.277344" xlink:href="#DejaVuSans-6f"/>
      <use x="759.458984" xlink:href="#DejaVuSans-6e"/>
      <use x="822.837891" xlink:href="#DejaVuSans-73"/>
     </g>
    </g>
    <g id="patch_16">
     <path d="M 864.828 248.626667 
L 1166.976 248.626667 
L 1166.976 216.948571 
L 864.828 216.948571 
z
" style="fill:#ffffff;stroke:#000000;stroke-linejoin:miter;"/>
    </g>
    <g id="text_14">
     <!-- Devin Harris -->
     <defs>
      <path d="M 19.671875 64.796875 
L 19.671875 8.109375 
L 31.59375 8.109375 
Q 46.6875 8.109375 53.6875 14.9375 
Q 60.6875 21.78125 60.6875 36.53125 
Q 60.6875 51.171875 53.6875 57.984375 
Q 46.6875 64.796875 31.59375 64.796875 
z
M 9.8125 72.90625 
L 30.078125 72.90625 
Q 51.265625 72.90625 61.171875 64.09375 
Q 71.09375 55.28125 71.09375 36.53125 
Q 71.09375 17.671875 61.125 8.828125 
Q 51.171875 0 30.078125 0 
L 9.8125 0 
z
" id="DejaVuSans-44"/>
     </defs>
     <g transform="translate(895.0428 237.478557)scale(0.17 -0.17)">
      <use xlink:href="#DejaVuSans-44"/>
      <use x="77.001953" xlink:href="#DejaVuSans-65"/>
      <use x="138.525391" xlink:href="#DejaVuSans-76"/>
      <use x="197.705078" xlink:href="#DejaVuSans-69"/>
      <use x="225.488281" xlink:href="#DejaVuSans-6e"/>
      <use x="288.867188" xlink:href="#DejaVuSans-20"/>
      <use x="320.654297" xlink:href="#DejaVuSans-48"/>
      <use x="395.849609" xlink:href="#DejaVuSans-61"/>
      <use x="457.128906" xlink:href="#DejaVuSans-72"/>
      <use x="498.226562" xlink:href="#DejaVuSans-72"/>
      <use x="539.339844" xlink:href="#DejaVuSans-69"/>
      <use x="567.123047" xlink:href="#DejaVuSans-73"/>
     </g>
    </g>
    <g id="patch_17">
     <path d="M 562.68 280.304762 
L 864.828 280.304762 
L 864.828 248.626667 
L 562.68 248.626667 
z
" style="fill:#ffffff;stroke:#000000;stroke-linejoin:miter;"/>
    </g>
    <g id="text_15">
     <!-- Kent Bazemore -->
     <defs>
      <path d="M 5.515625 54.6875 
L 48.1875 54.6875 
L 48.1875 46.484375 
L 14.40625 7.171875 
L 48.1875 7.171875 
L 48.1875 0 
L 4.296875 0 
L 4.296875 8.203125 
L 38.09375 47.515625 
L 5.515625 47.515625 
z
" id="DejaVuSans-7a"/>
      <path d="M 52 44.1875 
Q 55.375 50.25 60.0625 53.125 
Q 64.75 56 71.09375 56 
Q 79.640625 56 84.28125 50.015625 
Q 88.921875 44.046875 88.921875 33.015625 
L 88.921875 0 
L 79.890625 0 
L 79.890625 32.71875 
Q 79.890625 40.578125 77.09375 44.375 
Q 74.3125 48.1875 68.609375 48.1875 
Q 61.625 48.1875 57.5625 43.546875 
Q 53.515625 38.921875 53.515625 30.90625 
L 53.515625 0 
L 44.484375 0 
L 44.484375 32.71875 
Q 44.484375 40.625 41.703125 44.40625 
Q 38.921875 48.1875 33.109375 48.1875 
Q 26.21875 48.1875 22.15625 43.53125 
Q 18.109375 38.875 18.109375 30.90625 
L 18.109375 0 
L 9.078125 0 
L 9.078125 54.6875 
L 18.109375 54.6875 
L 18.109375 46.1875 
Q 21.1875 51.21875 25.484375 53.609375 
Q 29.78125 56 35.6875 56 
Q 41.65625 56 45.828125 52.96875 
Q 50 49.953125 52 44.1875 
" id="DejaVuSans-6d"/>
     </defs>
     <g transform="translate(592.8948 269.156652)scale(0.17 -0.17)">
      <use xlink:href="#DejaVuSans-4b"/>
      <use x="65.498047" xlink:href="#DejaVuSans-65"/>
      <use x="127.021484" xlink:href="#DejaVuSans-6e"/>
      <use x="190.400391" xlink:href="#DejaVuSans-74"/>
      <use x="229.609375" xlink:href="#DejaVuSans-20"/>
      <use x="261.396484" xlink:href="#DejaVuSans-42"/>
      <use x="330" xlink:href="#DejaVuSans-61"/>
      <use x="391.279297" xlink:href="#DejaVuSans-7a"/>
      <use x="443.769531" xlink:href="#DejaVuSans-65"/>
      <use x="505.292969" xlink:href="#DejaVuSans-6d"/>
      <use x="602.705078" xlink:href="#DejaVuSans-6f"/>
      <use x="663.886719" xlink:href="#DejaVuSans-72"/>
      <use x="704.96875" xlink:href="#DejaVuSans-65"/>
     </g>
    </g>
    <g id="patch_18">
     <path d="M 864.828 280.304762 
L 1166.976 280.304762 
L 1166.976 248.626667 
L 864.828 248.626667 
z
" style="fill:#ffffff;stroke:#000000;stroke-linejoin:miter;"/>
    </g>
    <g id="text_16">
     <!-- Mario Hezonja -->
     <defs>
      <path d="M 9.421875 54.6875 
L 18.40625 54.6875 
L 18.40625 -0.984375 
Q 18.40625 -11.421875 14.421875 -16.109375 
Q 10.453125 -20.796875 1.609375 -20.796875 
L -1.8125 -20.796875 
L -1.8125 -13.1875 
L 0.59375 -13.1875 
Q 5.71875 -13.1875 7.5625 -10.8125 
Q 9.421875 -8.453125 9.421875 -0.984375 
z
M 9.421875 75.984375 
L 18.40625 75.984375 
L 18.40625 64.59375 
L 9.421875 64.59375 
z
" id="DejaVuSans-6a"/>
     </defs>
     <g transform="translate(895.0428 269.156652)scale(0.17 -0.17)">
      <use xlink:href="#DejaVuSans-4d"/>
      <use x="86.279297" xlink:href="#DejaVuSans-61"/>
      <use x="147.558594" xlink:href="#DejaVuSans-72"/>
      <use x="188.671875" xlink:href="#DejaVuSans-69"/>
      <use x="216.455078" xlink:href="#DejaVuSans-6f"/>
      <use x="277.636719" xlink:href="#DejaVuSans-20"/>
      <use x="309.423828" xlink:href="#DejaVuSans-48"/>
      <use x="384.619141" xlink:href="#DejaVuSans-65"/>
      <use x="446.142578" xlink:href="#DejaVuSans-7a"/>
      <use x="498.632812" xlink:href="#DejaVuSans-6f"/>
      <use x="559.814453" xlink:href="#DejaVuSans-6e"/>
      <use x="623.193359" xlink:href="#DejaVuSans-6a"/>
      <use x="650.976562" xlink:href="#DejaVuSans-61"/>
     </g>
    </g>
    <g id="patch_19">
     <path d="M 562.68 311.982857 
L 864.828 311.982857 
L 864.828 280.304762 
L 562.68 280.304762 
z
" style="fill:#ffffff;stroke:#000000;stroke-linejoin:miter;"/>
    </g>
    <g id="text_17">
     <!-- Isaiah Canaan -->
     <defs>
      <path d="M 9.8125 72.90625 
L 19.671875 72.90625 
L 19.671875 0 
L 9.8125 0 
z
" id="DejaVuSans-49"/>
     </defs>
     <g transform="translate(592.8948 300.834747)scale(0.17 -0.17)">
      <use xlink:href="#DejaVuSans-49"/>
      <use x="29.492188" xlink:href="#DejaVuSans-73"/>
      <use x="81.591797" xlink:href="#DejaVuSans-61"/>
      <use x="142.871094" xlink:href="#DejaVuSans-69"/>
      <use x="170.654297" xlink:href="#DejaVuSans-61"/>
      <use x="231.933594" xlink:href="#DejaVuSans-68"/>
      <use x="295.3125" xlink:href="#DejaVuSans-20"/>
      <use x="327.099609" xlink:href="#DejaVuSans-43"/>
      <use x="396.923828" xlink:href="#DejaVuSans-61"/>
      <use x="458.203125" xlink:href="#DejaVuSans-6e"/>
      <use x="521.582031" xlink:href="#DejaVuSans-61"/>
      <use x="582.861328" xlink:href="#DejaVuSans-61"/>
      <use x="644.140625" xlink:href="#DejaVuSans-6e"/>
     </g>
    </g>
    <g id="patch_20">
     <path d="M 864.828 311.982857 
L 1166.976 311.982857 
L 1166.976 280.304762 
L 864.828 280.304762 
z
" style="fill:#ffffff;stroke:#000000;stroke-linejoin:miter;"/>
    </g>
    <g id="text_18">
     <!-- Tony Snell -->
     <g transform="translate(895.0428 300.834747)scale(0.17 -0.17)">
      <use xlink:href="#DejaVuSans-54"/>
      <use x="60.818359" xlink:href="#DejaVuSans-6f"/>
      <use x="122" xlink:href="#DejaVuSans-6e"/>
      <use x="185.378906" xlink:href="#DejaVuSans-79"/>
      <use x="244.558594" xlink:href="#DejaVuSans-20"/>
      <use x="276.345703" xlink:href="#DejaVuSans-53"/>
      <use x="339.822266" xlink:href="#DejaVuSans-6e"/>
      <use x="403.201172" xlink:href="#DejaVuSans-65"/>
      <use x="464.724609" xlink:href="#DejaVuSans-6c"/>
      <use x="492.507812" xlink:href="#DejaVuSans-6c"/>
     </g>
    </g>
    <g id="patch_21">
     <path d="M 562.68 343.660952 
L 864.828 343.660952 
L 864.828 311.982857 
L 562.68 311.982857 
z
" style="fill:#ffffff;stroke:#000000;stroke-linejoin:miter;"/>
    </g>
    <g id="text_19">
     <!-- Dion Waiters -->
     <g transform="translate(592.8948 332.512842)scale(0.17 -0.17)">
      <use xlink:href="#DejaVuSans-44"/>
      <use x="77.001953" xlink:href="#DejaVuSans-69"/>
      <use x="104.785156" xlink:href="#DejaVuSans-6f"/>
      <use x="165.966797" xlink:href="#DejaVuSans-6e"/>
      <use x="229.345703" xlink:href="#DejaVuSans-20"/>
      <use x="261.132812" xlink:href="#DejaVuSans-57"/>
      <use x="359.916016" xlink:href="#DejaVuSans-61"/>
      <use x="421.195312" xlink:href="#DejaVuSans-69"/>
      <use x="448.978516" xlink:href="#DejaVuSans-74"/>
      <use x="488.1875" xlink:href="#DejaVuSans-65"/>
      <use x="549.710938" xlink:href="#DejaVuSans-72"/>
      <use x="590.824219" xlink:href="#DejaVuSans-73"/>
     </g>
    </g>
    <g id="patch_22">
     <path d="M 864.828 343.660952 
L 1166.976 343.660952 
L 1166.976 311.982857 
L 864.828 311.982857 
z
" style="fill:#ffffff;stroke:#000000;stroke-linejoin:miter;"/>
    </g>
    <g id="text_20">
     <!-- Josh Richardson -->
     <defs>
      <path d="M 9.8125 72.90625 
L 19.671875 72.90625 
L 19.671875 5.078125 
Q 19.671875 -8.109375 14.671875 -14.0625 
Q 9.671875 -20.015625 -1.421875 -20.015625 
L -5.171875 -20.015625 
L -5.171875 -11.71875 
L -2.09375 -11.71875 
Q 4.4375 -11.71875 7.125 -8.046875 
Q 9.8125 -4.390625 9.8125 5.078125 
z
" id="DejaVuSans-4a"/>
     </defs>
     <g transform="translate(895.0428 332.512842)scale(0.17 -0.17)">
      <use xlink:href="#DejaVuSans-4a"/>
      <use x="29.492188" xlink:href="#DejaVuSans-6f"/>
      <use x="90.673828" xlink:href="#DejaVuSans-73"/>
      <use x="142.773438" xlink:href="#DejaVuSans-68"/>
      <use x="206.152344" xlink:href="#DejaVuSans-20"/>
      <use x="237.939453" xlink:href="#DejaVuSans-52"/>
      <use x="307.421875" xlink:href="#DejaVuSans-69"/>
      <use x="335.205078" xlink:href="#DejaVuSans-63"/>
      <use x="390.185547" xlink:href="#DejaVuSans-68"/>
      <use x="453.564453" xlink:href="#DejaVuSans-61"/>
      <use x="514.84375" xlink:href="#DejaVuSans-72"/>
      <use x="555.941406" xlink:href="#DejaVuSans-64"/>
      <use x="619.417969" xlink:href="#DejaVuSans-73"/>
      <use x="671.517578" xlink:href="#DejaVuSans-6f"/>
      <use x="732.699219" xlink:href="#DejaVuSans-6e"/>
     </g>
    </g>
    <g id="patch_23">
     <path d="M 562.68 375.339048 
L 864.828 375.339048 
L 864.828 343.660952 
L 562.68 343.660952 
z
" style="fill:#ffffff;stroke:#000000;stroke-linejoin:miter;"/>
    </g>
    <g id="text_21">
     <!-- Marcus Thornton -->
     <g transform="translate(592.8948 364.190937)scale(0.17 -0.17)">
      <use xlink:href="#DejaVuSans-4d"/>
      <use x="86.279297" xlink:href="#DejaVuSans-61"/>
      <use x="147.558594" xlink:href="#DejaVuSans-72"/>
      <use x="188.640625" xlink:href="#DejaVuSans-63"/>
      <use x="243.621094" xlink:href="#DejaVuSans-75"/>
      <use x="307" xlink:href="#DejaVuSans-73"/>
      <use x="359.099609" xlink:href="#DejaVuSans-20"/>
      <use x="390.886719" xlink:href="#DejaVuSans-54"/>
      <use x="451.970703" xlink:href="#DejaVuSans-68"/>
      <use x="515.349609" xlink:href="#DejaVuSans-6f"/>
      <use x="576.53125" xlink:href="#DejaVuSans-72"/>
      <use x="617.628906" xlink:href="#DejaVuSans-6e"/>
      <use x="681.007812" xlink:href="#DejaVuSans-74"/>
      <use x="720.216797" xlink:href="#DejaVuSans-6f"/>
      <use x="781.398438" xlink:href="#DejaVuSans-6e"/>
     </g>
    </g>
    <g id="patch_24">
     <path d="M 864.828 375.339048 
L 1166.976 375.339048 
L 1166.976 343.660952 
L 864.828 343.660952 
z
" style="fill:#ffffff;stroke:#000000;stroke-linejoin:miter;"/>
    </g>
    <g id="text_22">
     <!-- Markel Brown -->
     <g transform="translate(895.0428 364.190937)scale(0.17 -0.17)">
      <use xlink:href="#DejaVuSans-4d"/>
      <use x="86.279297" xlink:href="#DejaVuSans-61"/>
      <use x="147.558594" xlink:href="#DejaVuSans-72"/>
      <use x="188.671875" xlink:href="#DejaVuSans-6b"/>
      <use x="246.535156" xlink:href="#DejaVuSans-65"/>
      <use x="308.058594" xlink:href="#DejaVuSans-6c"/>
      <use x="335.841797" xlink:href="#DejaVuSans-20"/>
      <use x="367.628906" xlink:href="#DejaVuSans-42"/>
      <use x="436.232422" xlink:href="#DejaVuSans-72"/>
      <use x="477.314453" xlink:href="#DejaVuSans-6f"/>
      <use x="538.496094" xlink:href="#DejaVuSans-77"/>
      <use x="620.283203" xlink:href="#DejaVuSans-6e"/>
     </g>
    </g>
    <g id="patch_25">
     <path d="M 562.68 407.017143 
L 864.828 407.017143 
L 864.828 375.339048 
L 562.68 375.339048 
z
" style="fill:#ffffff;stroke:#000000;stroke-linejoin:miter;"/>
    </g>
    <g id="text_23">
     <!-- Marcus Smart -->
     <g transform="translate(592.8948 395.869033)scale(0.17 -0.17)">
      <use xlink:href="#DejaVuSans-4d"/>
      <use x="86.279297" xlink:href="#DejaVuSans-61"/>
      <use x="147.558594" xlink:href="#DejaVuSans-72"/>
      <use x="188.640625" xlink:href="#DejaVuSans-63"/>
      <use x="243.621094" xlink:href="#DejaVuSans-75"/>
      <use x="307" xlink:href="#DejaVuSans-73"/>
      <use x="359.099609" xlink:href="#DejaVuSans-20"/>
      <use x="390.886719" xlink:href="#DejaVuSans-53"/>
      <use x="454.363281" xlink:href="#DejaVuSans-6d"/>
      <use x="551.775391" xlink:href="#DejaVuSans-61"/>
      <use x="613.054688" xlink:href="#DejaVuSans-72"/>
      <use x="654.167969" xlink:href="#DejaVuSans-74"/>
     </g>
    </g>
    <g id="patch_26">
     <path d="M 864.828 407.017143 
L 1166.976 407.017143 
L 1166.976 375.339048 
L 864.828 375.339048 
z
" style="fill:#ffffff;stroke:#000000;stroke-linejoin:miter;"/>
    </g>
    <g id="text_24">
     <!-- Seth Curry -->
     <g transform="translate(895.0428 395.869033)scale(0.17 -0.17)">
      <use xlink:href="#DejaVuSans-53"/>
      <use x="63.476562" xlink:href="#DejaVuSans-65"/>
      <use x="125" xlink:href="#DejaVuSans-74"/>
      <use x="164.208984" xlink:href="#DejaVuSans-68"/>
      <use x="227.587891" xlink:href="#DejaVuSans-20"/>
      <use x="259.375" xlink:href="#DejaVuSans-43"/>
      <use x="329.199219" xlink:href="#DejaVuSans-75"/>
      <use x="392.578125" xlink:href="#DejaVuSans-72"/>
      <use x="433.675781" xlink:href="#DejaVuSans-72"/>
      <use x="474.789062" xlink:href="#DejaVuSans-79"/>
     </g>
    </g>
    <g id="patch_27">
     <path d="M 562.68 438.695238 
L 864.828 438.695238 
L 864.828 407.017143 
L 562.68 407.017143 
z
" style="fill:#ffffff;stroke:#000000;stroke-linejoin:miter;"/>
    </g>
    <g id="text_25">
     <!-- Jerryd Bayless -->
     <g transform="translate(592.8948 427.547128)scale(0.17 -0.17)">
      <use xlink:href="#DejaVuSans-4a"/>
      <use x="29.492188" xlink:href="#DejaVuSans-65"/>
      <use x="91.015625" xlink:href="#DejaVuSans-72"/>
      <use x="132.113281" xlink:href="#DejaVuSans-72"/>
      <use x="173.226562" xlink:href="#DejaVuSans-79"/>
      <use x="232.40625" xlink:href="#DejaVuSans-64"/>
      <use x="295.882812" xlink:href="#DejaVuSans-20"/>
      <use x="327.669922" xlink:href="#DejaVuSans-42"/>
      <use x="396.273438" xlink:href="#DejaVuSans-61"/>
      <use x="457.552734" xlink:href="#DejaVuSans-79"/>
      <use x="516.732422" xlink:href="#DejaVuSans-6c"/>
      <use x="544.515625" xlink:href="#DejaVuSans-65"/>
      <use x="606.039062" xlink:href="#DejaVuSans-73"/>
      <use x="658.138672" xlink:href="#DejaVuSans-73"/>
     </g>
    </g>
    <g id="patch_28">
     <path d="M 864.828 438.695238 
L 1166.976 438.695238 
L 1166.976 407.017143 
L 864.828 407.017143 
z
" style="fill:#ffffff;stroke:#000000;stroke-linejoin:miter;"/>
    </g>
    <g id="text_26">
     <!-- Ronnie Price -->
     <g transform="translate(895.0428 427.547128)scale(0.17 -0.17)">
      <use xlink:href="#DejaVuSans-52"/>
      <use x="69.419922" xlink:href="#DejaVuSans-6f"/>
      <use x="130.601562" xlink:href="#DejaVuSans-6e"/>
      <use x="193.980469" xlink:href="#DejaVuSans-6e"/>
      <use x="257.359375" xlink:href="#DejaVuSans-69"/>
      <use x="285.142578" xlink:href="#DejaVuSans-65"/>
      <use x="346.666016" xlink:href="#DejaVuSans-20"/>
      <use x="378.453125" xlink:href="#DejaVuSans-50"/>
      <use x="438.740234" xlink:href="#DejaVuSans-72"/>
      <use x="479.853516" xlink:href="#DejaVuSans-69"/>
      <use x="507.636719" xlink:href="#DejaVuSans-63"/>
      <use x="562.617188" xlink:href="#DejaVuSans-65"/>
     </g>
    </g>
    <g id="patch_29">
     <path d="M 562.68 470.373333 
L 864.828 470.373333 
L 864.828 438.695238 
L 562.68 438.695238 
z
" style="fill:#ffffff;stroke:#000000;stroke-linejoin:miter;"/>
    </g>
    <g id="text_27">
     <!-- Patrick Beverley -->
     <g transform="translate(592.8948 459.225223)scale(0.17 -0.17)">
      <use xlink:href="#DejaVuSans-50"/>
      <use x="60.240234" xlink:href="#DejaVuSans-61"/>
      <use x="121.519531" xlink:href="#DejaVuSans-74"/>
      <use x="160.728516" xlink:href="#DejaVuSans-72"/>
      <use x="201.841797" xlink:href="#DejaVuSans-69"/>
      <use x="229.625" xlink:href="#DejaVuSans-63"/>
      <use x="284.605469" xlink:href="#DejaVuSans-6b"/>
      <use x="342.515625" xlink:href="#DejaVuSans-20"/>
      <use x="374.302734" xlink:href="#DejaVuSans-42"/>
      <use x="442.90625" xlink:href="#DejaVuSans-65"/>
      <use x="504.429688" xlink:href="#DejaVuSans-76"/>
      <use x="563.609375" xlink:href="#DejaVuSans-65"/>
      <use x="625.132812" xlink:href="#DejaVuSans-72"/>
      <use x="666.246094" xlink:href="#DejaVuSans-6c"/>
      <use x="694.029297" xlink:href="#DejaVuSans-65"/>
      <use x="755.552734" xlink:href="#DejaVuSans-79"/>
     </g>
    </g>
    <g id="patch_30">
     <path d="M 864.828 470.373333 
L 1166.976 470.373333 
L 1166.976 438.695238 
L 864.828 438.695238 
z
" style="fill:#ffffff;stroke:#000000;stroke-linejoin:miter;"/>
    </g>
    <g id="text_28">
     <!-- Norman Powell -->
     <g transform="translate(895.0428 459.225223)scale(0.17 -0.17)">
      <use xlink:href="#DejaVuSans-4e"/>
      <use x="74.804688" xlink:href="#DejaVuSans-6f"/>
      <use x="135.986328" xlink:href="#DejaVuSans-72"/>
      <use x="177.083984" xlink:href="#DejaVuSans-6d"/>
      <use x="274.496094" xlink:href="#DejaVuSans-61"/>
      <use x="335.775391" xlink:href="#DejaVuSans-6e"/>
      <use x="399.154297" xlink:href="#DejaVuSans-20"/>
      <use x="430.941406" xlink:href="#DejaVuSans-50"/>
      <use x="491.197266" xlink:href="#DejaVuSans-6f"/>
      <use x="552.378906" xlink:href="#DejaVuSans-77"/>
      <use x="634.166016" xlink:href="#DejaVuSans-65"/>
      <use x="695.689453" xlink:href="#DejaVuSans-6c"/>
      <use x="723.472656" xlink:href="#DejaVuSans-6c"/>
     </g>
    </g>
    <g id="patch_31">
     <path d="M 562.68 502.051429 
L 864.828 502.051429 
L 864.828 470.373333 
L 562.68 470.373333 
z
" style="fill:#ffffff;stroke:#000000;stroke-linejoin:miter;"/>
    </g>
    <g id="text_29">
     <!-- Stanley Johnson -->
     <g transform="translate(592.8948 490.903318)scale(0.17 -0.17)">
      <use xlink:href="#DejaVuSans-53"/>
      <use x="63.476562" xlink:href="#DejaVuSans-74"/>
      <use x="102.685547" xlink:href="#DejaVuSans-61"/>
      <use x="163.964844" xlink:href="#DejaVuSans-6e"/>
      <use x="227.34375" xlink:href="#DejaVuSans-6c"/>
      <use x="255.126953" xlink:href="#DejaVuSans-65"/>
      <use x="316.650391" xlink:href="#DejaVuSans-79"/>
      <use x="375.830078" xlink:href="#DejaVuSans-20"/>
      <use x="407.617188" xlink:href="#DejaVuSans-4a"/>
      <use x="437.109375" xlink:href="#DejaVuSans-6f"/>
      <use x="498.291016" xlink:href="#DejaVuSans-68"/>
      <use x="561.669922" xlink:href="#DejaVuSans-6e"/>
      <use x="625.048828" xlink:href="#DejaVuSans-73"/>
      <use x="677.148438" xlink:href="#DejaVuSans-6f"/>
      <use x="738.330078" xlink:href="#DejaVuSans-6e"/>
     </g>
    </g>
    <g id="patch_32">
     <path d="M 864.828 502.051429 
L 1166.976 502.051429 
L 1166.976 470.373333 
L 864.828 470.373333 
z
" style="fill:#ffffff;stroke:#000000;stroke-linejoin:miter;"/>
    </g>
    <g id="text_30">
     <!-- Jonathon Simmons -->
     <g transform="translate(895.0428 490.903318)scale(0.17 -0.17)">
      <use xlink:href="#DejaVuSans-4a"/>
      <use x="29.492188" xlink:href="#DejaVuSans-6f"/>
      <use x="90.673828" xlink:href="#DejaVuSans-6e"/>
      <use x="154.052734" xlink:href="#DejaVuSans-61"/>
      <use x="215.332031" xlink:href="#DejaVuSans-74"/>
      <use x="254.541016" xlink:href="#DejaVuSans-68"/>
      <use x="317.919922" xlink:href="#DejaVuSans-6f"/>
      <use x="379.101562" xlink:href="#DejaVuSans-6e"/>
      <use x="442.480469" xlink:href="#DejaVuSans-20"/>
      <use x="474.267578" xlink:href="#DejaVuSans-53"/>
      <use x="537.744141" xlink:href="#DejaVuSans-69"/>
      <use x="565.527344" xlink:href="#DejaVuSans-6d"/>
      <use x="662.939453" xlink:href="#DejaVuSans-6d"/>
      <use x="760.351562" xlink:href="#DejaVuSans-6f"/>
      <use x="821.533203" xlink:href="#DejaVuSans-6e"/>
      <use x="884.912109" xlink:href="#DejaVuSans-73"/>
     </g>
    </g>
    <g id="patch_33">
     <path d="M 562.68 533.729524 
L 864.828 533.729524 
L 864.828 502.051429 
L 562.68 502.051429 
z
" style="fill:#ffffff;stroke:#000000;stroke-linejoin:miter;"/>
    </g>
    <g id="text_31">
     <!-- Gary Neal -->
     <g transform="translate(592.8948 522.581414)scale(0.17 -0.17)">
      <use xlink:href="#DejaVuSans-47"/>
      <use x="77.490234" xlink:href="#DejaVuSans-61"/>
      <use x="138.769531" xlink:href="#DejaVuSans-72"/>
      <use x="179.882812" xlink:href="#DejaVuSans-79"/>
      <use x="239.0625" xlink:href="#DejaVuSans-20"/>
      <use x="270.849609" xlink:href="#DejaVuSans-4e"/>
      <use x="345.654297" xlink:href="#DejaVuSans-65"/>
      <use x="407.177734" xlink:href="#DejaVuSans-61"/>
      <use x="468.457031" xlink:href="#DejaVuSans-6c"/>
     </g>
    </g>
    <g id="patch_34">
     <path d="M 864.828 533.729524 
L 1166.976 533.729524 
L 1166.976 502.051429 
L 864.828 502.051429 
z
" style="fill:#ffffff;stroke:#000000;stroke-linejoin:miter;"/>
    </g>
    <g id="text_32">
     <!-- James Anderson -->
     <defs>
      <path d="M 34.1875 63.1875 
L 20.796875 26.90625 
L 47.609375 26.90625 
z
M 28.609375 72.90625 
L 39.796875 72.90625 
L 67.578125 0 
L 57.328125 0 
L 50.6875 18.703125 
L 17.828125 18.703125 
L 11.1875 0 
L 0.78125 0 
z
" id="DejaVuSans-41"/>
     </defs>
     <g transform="translate(895.0428 522.581414)scale(0.17 -0.17)">
      <use xlink:href="#DejaVuSans-4a"/>
      <use x="29.492188" xlink:href="#DejaVuSans-61"/>
      <use x="90.771484" xlink:href="#DejaVuSans-6d"/>
      <use x="188.183594" xlink:href="#DejaVuSans-65"/>
      <use x="249.707031" xlink:href="#DejaVuSans-73"/>
      <use x="301.806641" xlink:href="#DejaVuSans-20"/>
      <use x="333.59375" xlink:href="#DejaVuSans-41"/>
      <use x="402.001953" xlink:href="#DejaVuSans-6e"/>
      <use x="465.380859" xlink:href="#DejaVuSans-64"/>
      <use x="528.857422" xlink:href="#DejaVuSans-65"/>
      <use x="590.380859" xlink:href="#DejaVuSans-72"/>
      <use x="631.494141" xlink:href="#DejaVuSans-73"/>
      <use x="683.59375" xlink:href="#DejaVuSans-6f"/>
      <use x="744.775391" xlink:href="#DejaVuSans-6e"/>
     </g>
    </g>
    <g id="patch_35">
     <path d="M 562.68 565.407619 
L 864.828 565.407619 
L 864.828 533.729524 
L 562.68 533.729524 
z
" style="fill:#ffffff;stroke:#000000;stroke-linejoin:miter;"/>
    </g>
    <g id="text_33">
     <!-- O.J. Mayo -->
     <defs>
      <path d="M 39.40625 66.21875 
Q 28.65625 66.21875 22.328125 58.203125 
Q 16.015625 50.203125 16.015625 36.375 
Q 16.015625 22.609375 22.328125 14.59375 
Q 28.65625 6.59375 39.40625 6.59375 
Q 50.140625 6.59375 56.421875 14.59375 
Q 62.703125 22.609375 62.703125 36.375 
Q 62.703125 50.203125 56.421875 58.203125 
Q 50.140625 66.21875 39.40625 66.21875 
M 39.40625 74.21875 
Q 54.734375 74.21875 63.90625 63.9375 
Q 73.09375 53.65625 73.09375 36.375 
Q 73.09375 19.140625 63.90625 8.859375 
Q 54.734375 -1.421875 39.40625 -1.421875 
Q 24.03125 -1.421875 14.8125 8.828125 
Q 5.609375 19.09375 5.609375 36.375 
Q 5.609375 53.65625 14.8125 63.9375 
Q 24.03125 74.21875 39.40625 74.21875 
" id="DejaVuSans-4f"/>
      <path d="M 10.6875 12.40625 
L 21 12.40625 
L 21 0 
L 10.6875 0 
z
" id="DejaVuSans-2e"/>
     </defs>
     <g transform="translate(592.8948 554.259509)scale(0.17 -0.17)">
      <use xlink:href="#DejaVuSans-4f"/>
      <use x="78.648438" xlink:href="#DejaVuSans-2e"/>
      <use x="110.435547" xlink:href="#DejaVuSans-4a"/>
      <use x="139.927734" xlink:href="#DejaVuSans-2e"/>
      <use x="171.714844" xlink:href="#DejaVuSans-20"/>
      <use x="203.501953" xlink:href="#DejaVuSans-4d"/>
      <use x="289.78125" xlink:href="#DejaVuSans-61"/>
      <use x="351.060547" xlink:href="#DejaVuSans-79"/>
      <use x="410.240234" xlink:href="#DejaVuSans-6f"/>
     </g>
    </g>
    <g id="patch_36">
     <path d="M 864.828 565.407619 
L 1166.976 565.407619 
L 1166.976 533.729524 
L 864.828 533.729524 
z
" style="fill:#ffffff;stroke:#000000;stroke-linejoin:miter;"/>
    </g>
    <g id="text_34">
     <!-- Justin Anderson -->
     <g transform="translate(895.0428 554.259509)scale(0.17 -0.17)">
      <use xlink:href="#DejaVuSans-4a"/>
      <use x="29.492188" xlink:href="#DejaVuSans-75"/>
      <use x="92.871094" xlink:href="#DejaVuSans-73"/>
      <use x="144.970703" xlink:href="#DejaVuSans-74"/>
      <use x="184.179688" xlink:href="#DejaVuSans-69"/>
      <use x="211.962891" xlink:href="#DejaVuSans-6e"/>
      <use x="275.341797" xlink:href="#DejaVuSans-20"/>
      <use x="307.128906" xlink:href="#DejaVuSans-41"/>
      <use x="375.537109" xlink:href="#DejaVuSans-6e"/>
      <use x="438.916016" xlink:href="#DejaVuSans-64"/>
      <use x="502.392578" xlink:href="#DejaVuSans-65"/>
      <use x="563.916016" xlink:href="#DejaVuSans-72"/>
      <use x="605.029297" xlink:href="#DejaVuSans-73"/>
      <use x="657.128906" xlink:href="#DejaVuSans-6f"/>
      <use x="718.310547" xlink:href="#DejaVuSans-6e"/>
     </g>
    </g>
    <g id="patch_37">
     <path d="M 562.68 597.085714 
L 864.828 597.085714 
L 864.828 565.407619 
L 562.68 565.407619 
z
" style="fill:#ffffff;stroke:#000000;stroke-linejoin:miter;"/>
    </g>
    <g id="text_35">
     <!-- Patty Mills -->
     <g transform="translate(592.8948 585.937604)scale(0.17 -0.17)">
      <use xlink:href="#DejaVuSans-50"/>
      <use x="60.240234" xlink:href="#DejaVuSans-61"/>
      <use x="121.519531" xlink:href="#DejaVuSans-74"/>
      <use x="160.728516" xlink:href="#DejaVuSans-74"/>
      <use x="199.9375" xlink:href="#DejaVuSans-79"/>
      <use x="259.117188" xlink:href="#DejaVuSans-20"/>
      <use x="290.904297" xlink:href="#DejaVuSans-4d"/>
      <use x="377.183594" xlink:href="#DejaVuSans-69"/>
      <use x="404.966797" xlink:href="#DejaVuSans-6c"/>
      <use x="432.75" xlink:href="#DejaVuSans-6c"/>
      <use x="460.533203" xlink:href="#DejaVuSans-73"/>
     </g>
    </g>
    <g id="patch_38">
     <path d="M 864.828 597.085714 
L 1166.976 597.085714 
L 1166.976 565.407619 
L 864.828 565.407619 
z
" style="fill:#ffffff;stroke:#000000;stroke-linejoin:miter;"/>
    </g>
    <g id="text_36">
     <!-- Kirk Hinrich -->
     <g transform="translate(895.0428 585.937604)scale(0.17 -0.17)">
      <use xlink:href="#DejaVuSans-4b"/>
      <use x="65.576172" xlink:href="#DejaVuSans-69"/>
      <use x="93.359375" xlink:href="#DejaVuSans-72"/>
      <use x="134.472656" xlink:href="#DejaVuSans-6b"/>
      <use x="192.382812" xlink:href="#DejaVuSans-20"/>
      <use x="224.169922" xlink:href="#DejaVuSans-48"/>
      <use x="299.365234" xlink:href="#DejaVuSans-69"/>
      <use x="327.148438" xlink:href="#DejaVuSans-6e"/>
      <use x="390.527344" xlink:href="#DejaVuSans-72"/>
      <use x="431.640625" xlink:href="#DejaVuSans-69"/>
      <use x="459.423828" xlink:href="#DejaVuSans-63"/>
      <use x="514.404297" xlink:href="#DejaVuSans-68"/>
     </g>
    </g>
    <g id="patch_39">
     <path d="M 562.68 628.76381 
L 864.828 628.76381 
L 864.828 597.085714 
L 562.68 597.085714 
z
" style="fill:#ffffff;stroke:#000000;stroke-linejoin:miter;"/>
    </g>
    <g id="text_37">
     <!-- Manu Ginobili -->
     <defs>
      <path d="M 48.6875 27.296875 
Q 48.6875 37.203125 44.609375 42.84375 
Q 40.53125 48.484375 33.40625 48.484375 
Q 26.265625 48.484375 22.1875 42.84375 
Q 18.109375 37.203125 18.109375 27.296875 
Q 18.109375 17.390625 22.1875 11.75 
Q 26.265625 6.109375 33.40625 6.109375 
Q 40.53125 6.109375 44.609375 11.75 
Q 48.6875 17.390625 48.6875 27.296875 
M 18.109375 46.390625 
Q 20.953125 51.265625 25.265625 53.625 
Q 29.59375 56 35.59375 56 
Q 45.5625 56 51.78125 48.09375 
Q 58.015625 40.1875 58.015625 27.296875 
Q 58.015625 14.40625 51.78125 6.484375 
Q 45.5625 -1.421875 35.59375 -1.421875 
Q 29.59375 -1.421875 25.265625 0.953125 
Q 20.953125 3.328125 18.109375 8.203125 
L 18.109375 0 
L 9.078125 0 
L 9.078125 75.984375 
L 18.109375 75.984375 
z
" id="DejaVuSans-62"/>
     </defs>
     <g transform="translate(592.8948 617.615699)scale(0.17 -0.17)">
      <use xlink:href="#DejaVuSans-4d"/>
      <use x="86.279297" xlink:href="#DejaVuSans-61"/>
      <use x="147.558594" xlink:href="#DejaVuSans-6e"/>
      <use x="210.9375" xlink:href="#DejaVuSans-75"/>
      <use x="274.316406" xlink:href="#DejaVuSans-20"/>
      <use x="306.103516" xlink:href="#DejaVuSans-47"/>
      <use x="383.59375" xlink:href="#DejaVuSans-69"/>
      <use x="411.376953" xlink:href="#DejaVuSans-6e"/>
      <use x="474.755859" xlink:href="#DejaVuSans-6f"/>
      <use x="535.9375" xlink:href="#DejaVuSans-62"/>
      <use x="599.414062" xlink:href="#DejaVuSans-69"/>
      <use x="627.197266" xlink:href="#DejaVuSans-6c"/>
      <use x="654.980469" xlink:href="#DejaVuSans-69"/>
     </g>
    </g>
    <g id="patch_40">
     <path d="M 864.828 628.76381 
L 1166.976 628.76381 
L 1166.976 597.085714 
L 864.828 597.085714 
z
" style="fill:#ffffff;stroke:#000000;stroke-linejoin:miter;"/>
    </g>
    <g id="text_38">
     <!-- Sonny Weems -->
     <g transform="translate(895.0428 617.615699)scale(0.17 -0.17)">
      <use xlink:href="#DejaVuSans-53"/>
      <use x="63.476562" xlink:href="#DejaVuSans-6f"/>
      <use x="124.658203" xlink:href="#DejaVuSans-6e"/>
      <use x="188.037109" xlink:href="#DejaVuSans-6e"/>
      <use x="251.416016" xlink:href="#DejaVuSans-79"/>
      <use x="310.595703" xlink:href="#DejaVuSans-20"/>
      <use x="342.382812" xlink:href="#DejaVuSans-57"/>
      <use x="441.181641" xlink:href="#DejaVuSans-65"/>
      <use x="502.705078" xlink:href="#DejaVuSans-65"/>
      <use x="564.228516" xlink:href="#DejaVuSans-6d"/>
      <use x="661.640625" xlink:href="#DejaVuSans-73"/>
     </g>
    </g>
    <g id="patch_41">
     <path d="M 562.68 660.441905 
L 864.828 660.441905 
L 864.828 628.76381 
L 562.68 628.76381 
z
" style="fill:#ffffff;stroke:#000000;stroke-linejoin:miter;"/>
    </g>
    <g id="text_39">
     <!-- Wayne Ellington -->
     <g transform="translate(592.8948 649.293795)scale(0.17 -0.17)">
      <use xlink:href="#DejaVuSans-57"/>
      <use x="98.783203" xlink:href="#DejaVuSans-61"/>
      <use x="160.0625" xlink:href="#DejaVuSans-79"/>
      <use x="219.242188" xlink:href="#DejaVuSans-6e"/>
      <use x="282.621094" xlink:href="#DejaVuSans-65"/>
      <use x="344.144531" xlink:href="#DejaVuSans-20"/>
      <use x="375.931641" xlink:href="#DejaVuSans-45"/>
      <use x="439.115234" xlink:href="#DejaVuSans-6c"/>
      <use x="466.898438" xlink:href="#DejaVuSans-6c"/>
      <use x="494.681641" xlink:href="#DejaVuSans-69"/>
      <use x="522.464844" xlink:href="#DejaVuSans-6e"/>
      <use x="585.84375" xlink:href="#DejaVuSans-67"/>
      <use x="649.320312" xlink:href="#DejaVuSans-74"/>
      <use x="688.529297" xlink:href="#DejaVuSans-6f"/>
      <use x="749.710938" xlink:href="#DejaVuSans-6e"/>
     </g>
    </g>
    <g id="patch_42">
     <path d="M 864.828 660.441905 
L 1166.976 660.441905 
L 1166.976 628.76381 
L 864.828 628.76381 
z
" style="fill:#ffffff;stroke:#000000;stroke-linejoin:miter;"/>
    </g>
    <g id="text_40">
     <!-- Sergey Karasev -->
     <g transform="translate(895.0428 649.293795)scale(0.17 -0.17)">
      <use xlink:href="#DejaVuSans-53"/>
      <use x="63.476562" xlink:href="#DejaVuSans-65"/>
      <use x="125" xlink:href="#DejaVuSans-72"/>
      <use x="166.097656" xlink:href="#DejaVuSans-67"/>
      <use x="229.574219" xlink:href="#DejaVuSans-65"/>
      <use x="291.097656" xlink:href="#DejaVuSans-79"/>
      <use x="350.277344" xlink:href="#DejaVuSans-20"/>
      <use x="382.064453" xlink:href="#DejaVuSans-4b"/>
      <use x="447.625" xlink:href="#DejaVuSans-61"/>
      <use x="508.904297" xlink:href="#DejaVuSans-72"/>
      <use x="550.017578" xlink:href="#DejaVuSans-61"/>
      <use x="611.296875" xlink:href="#DejaVuSans-73"/>
      <use x="663.396484" xlink:href="#DejaVuSans-65"/>
      <use x="724.919922" xlink:href="#DejaVuSans-76"/>
     </g>
    </g>
    <g id="patch_43">
     <path d="M 562.68 692.12 
L 864.828 692.12 
L 864.828 660.441905 
L 562.68 660.441905 
z
" style="fill:#ffffff;stroke:#000000;stroke-linejoin:miter;"/>
    </g>
    <g id="text_41">
     <!-- Gerald Henderson -->
     <g transform="translate(592.8948 680.97189)scale(0.17 -0.17)">
      <use xlink:href="#DejaVuSans-47"/>
      <use x="77.490234" xlink:href="#DejaVuSans-65"/>
      <use x="139.013672" xlink:href="#DejaVuSans-72"/>
      <use x="180.126953" xlink:href="#DejaVuSans-61"/>
      <use x="241.40625" xlink:href="#DejaVuSans-6c"/>
      <use x="269.189453" xlink:href="#DejaVuSans-64"/>
      <use x="332.666016" xlink:href="#DejaVuSans-20"/>
      <use x="364.453125" xlink:href="#DejaVuSans-48"/>
      <use x="439.648438" xlink:href="#DejaVuSans-65"/>
      <use x="501.171875" xlink:href="#DejaVuSans-6e"/>
      <use x="564.550781" xlink:href="#DejaVuSans-64"/>
      <use x="628.027344" xlink:href="#DejaVuSans-65"/>
      <use x="689.550781" xlink:href="#DejaVuSans-72"/>
      <use x="730.664062" xlink:href="#DejaVuSans-73"/>
      <use x="782.763672" xlink:href="#DejaVuSans-6f"/>
      <use x="843.945312" xlink:href="#DejaVuSans-6e"/>
     </g>
    </g>
    <g id="patch_44">
     <path d="M 864.828 692.12 
L 1166.976 692.12 
L 1166.976 660.441905 
L 864.828 660.441905 
z
" style="fill:#ffffff;stroke:#000000;stroke-linejoin:miter;"/>
    </g>
   </g>
   <g id="patch_45">
    <path clip-path="url(#p6c1993d1f5)" d="M 38.290909 692.12 
L 64.576077 692.12 
L 64.576077 302.043679 
L 38.290909 302.043679 
z
" style="fill:#a50026;"/>
   </g>
   <g id="patch_46">
    <path clip-path="url(#p6c1993d1f5)" d="M 90.861244 692.12 
L 117.146411 692.12 
L 117.146411 564.300351 
L 90.861244 564.300351 
z
" style="fill:#da362a;"/>
   </g>
   <g id="patch_47">
    <path clip-path="url(#p6c1993d1f5)" d="M 143.431579 692.12 
L 169.716746 692.12 
L 169.716746 217.122838 
L 143.431579 217.122838 
z
" style="fill:#f67a49;"/>
   </g>
   <g id="patch_48">
    <path clip-path="url(#p6c1993d1f5)" d="M 196.001914 692.12 
L 222.287081 692.12 
L 222.287081 689.864724 
L 196.001914 689.864724 
z
" style="fill:#fdbf71;"/>
   </g>
   <g id="patch_49">
    <path clip-path="url(#p6c1993d1f5)" d="M 248.572249 692.12 
L 274.857416 692.12 
L 274.857416 672.997868 
L 248.572249 672.997868 
z
" style="fill:#feeda4;"/>
   </g>
   <g id="patch_50">
    <path clip-path="url(#p6c1993d1f5)" d="M 301.142584 692.12 
L 327.427751 692.12 
L 327.427751 58.558095 
L 301.142584 58.558095 
z
" style="fill:#edf8df;"/>
   </g>
   <g id="patch_51">
    <path clip-path="url(#p6c1993d1f5)" d="M 353.712919 692.12 
L 379.998086 692.12 
L 379.998086 545.266957 
L 353.712919 545.266957 
z
" style="fill:#bde2ee;"/>
   </g>
   <g id="patch_52">
    <path clip-path="url(#p6c1993d1f5)" d="M 406.283254 692.12 
L 432.568421 692.12 
L 432.568421 613.067565 
L 406.283254 613.067565 
z
" style="fill:#7fb6d6;"/>
   </g>
   <g id="patch_53">
    <path clip-path="url(#p6c1993d1f5)" d="M 458.853589 692.12 
L 485.138756 692.12 
L 485.138756 551.522126 
L 458.853589 551.522126 
z
" style="fill:#4a7ab7;"/>
   </g>
   <g id="patch_54">
    <path clip-path="url(#p6c1993d1f5)" d="M 511.423923 692.12 
L 537.709091 692.12 
L 537.709091 658.525255 
L 511.423923 658.525255 
z
" style="fill:#313695;"/>
   </g>
   <g id="matplotlib.axis_1">
    <g id="xtick_1">
     <g id="line2d_1">
      <defs>
       <path d="M 0 0 
L 0 3.5 
" id="m66538e99a0" style="stroke:#000000;stroke-width:0.8;"/>
      </defs>
      <g>
       <use style="stroke:#000000;stroke-width:0.8;" x="51.433493" xlink:href="#m66538e99a0" y="692.12"/>
      </g>
     </g>
     <g id="text_42">
      <!-- 0 -->
      <defs>
       <path d="M 31.78125 66.40625 
Q 24.171875 66.40625 20.328125 58.90625 
Q 16.5 51.421875 16.5 36.375 
Q 16.5 21.390625 20.328125 13.890625 
Q 24.171875 6.390625 31.78125 6.390625 
Q 39.453125 6.390625 43.28125 13.890625 
Q 47.125 21.390625 47.125 36.375 
Q 47.125 51.421875 43.28125 58.90625 
Q 39.453125 66.40625 31.78125 66.40625 
M 31.78125 74.21875 
Q 44.046875 74.21875 50.515625 64.515625 
Q 56.984375 54.828125 56.984375 36.375 
Q 56.984375 17.96875 50.515625 8.265625 
Q 44.046875 -1.421875 31.78125 -1.421875 
Q 19.53125 -1.421875 13.0625 8.265625 
Q 6.59375 17.96875 6.59375 36.375 
Q 6.59375 54.828125 13.0625 64.515625 
Q 19.53125 74.21875 31.78125 74.21875 
" id="DejaVuSans-30"/>
      </defs>
      <g transform="translate(48.252243 706.718438)scale(0.1 -0.1)">
       <use xlink:href="#DejaVuSans-30"/>
      </g>
     </g>
    </g>
    <g id="xtick_2">
     <g id="line2d_2">
      <g>
       <use style="stroke:#000000;stroke-width:0.8;" x="104.003828" xlink:href="#m66538e99a0" y="692.12"/>
      </g>
     </g>
     <g id="text_43">
      <!-- 1 -->
      <defs>
       <path d="M 12.40625 8.296875 
L 28.515625 8.296875 
L 28.515625 63.921875 
L 10.984375 60.40625 
L 10.984375 69.390625 
L 28.421875 72.90625 
L 38.28125 72.90625 
L 38.28125 8.296875 
L 54.390625 8.296875 
L 54.390625 0 
L 12.40625 0 
z
" id="DejaVuSans-31"/>
      </defs>
      <g transform="translate(100.822578 706.718438)scale(0.1 -0.1)">
       <use xlink:href="#DejaVuSans-31"/>
      </g>
     </g>
    </g>
    <g id="xtick_3">
     <g id="line2d_3">
      <g>
       <use style="stroke:#000000;stroke-width:0.8;" x="156.574163" xlink:href="#m66538e99a0" y="692.12"/>
      </g>
     </g>
     <g id="text_44">
      <!-- 2 -->
      <defs>
       <path d="M 19.1875 8.296875 
L 53.609375 8.296875 
L 53.609375 0 
L 7.328125 0 
L 7.328125 8.296875 
Q 12.9375 14.109375 22.625 23.890625 
Q 32.328125 33.6875 34.8125 36.53125 
Q 39.546875 41.84375 41.421875 45.53125 
Q 43.3125 49.21875 43.3125 52.78125 
Q 43.3125 58.59375 39.234375 62.25 
Q 35.15625 65.921875 28.609375 65.921875 
Q 23.96875 65.921875 18.8125 64.3125 
Q 13.671875 62.703125 7.8125 59.421875 
L 7.8125 69.390625 
Q 13.765625 71.78125 18.9375 73 
Q 24.125 74.21875 28.421875 74.21875 
Q 39.75 74.21875 46.484375 68.546875 
Q 53.21875 62.890625 53.21875 53.421875 
Q 53.21875 48.921875 51.53125 44.890625 
Q 49.859375 40.875 45.40625 35.40625 
Q 44.1875 33.984375 37.640625 27.21875 
Q 31.109375 20.453125 19.1875 8.296875 
" id="DejaVuSans-32"/>
      </defs>
      <g transform="translate(153.392913 706.718438)scale(0.1 -0.1)">
       <use xlink:href="#DejaVuSans-32"/>
      </g>
     </g>
    </g>
    <g id="xtick_4">
     <g id="line2d_4">
      <g>
       <use style="stroke:#000000;stroke-width:0.8;" x="209.144498" xlink:href="#m66538e99a0" y="692.12"/>
      </g>
     </g>
     <g id="text_45">
      <!-- 3 -->
      <defs>
       <path d="M 40.578125 39.3125 
Q 47.65625 37.796875 51.625 33 
Q 55.609375 28.21875 55.609375 21.1875 
Q 55.609375 10.40625 48.1875 4.484375 
Q 40.765625 -1.421875 27.09375 -1.421875 
Q 22.515625 -1.421875 17.65625 -0.515625 
Q 12.796875 0.390625 7.625 2.203125 
L 7.625 11.71875 
Q 11.71875 9.328125 16.59375 8.109375 
Q 21.484375 6.890625 26.8125 6.890625 
Q 36.078125 6.890625 40.9375 10.546875 
Q 45.796875 14.203125 45.796875 21.1875 
Q 45.796875 27.640625 41.28125 31.265625 
Q 36.765625 34.90625 28.71875 34.90625 
L 20.21875 34.90625 
L 20.21875 43.015625 
L 29.109375 43.015625 
Q 36.375 43.015625 40.234375 45.921875 
Q 44.09375 48.828125 44.09375 54.296875 
Q 44.09375 59.90625 40.109375 62.90625 
Q 36.140625 65.921875 28.71875 65.921875 
Q 24.65625 65.921875 20.015625 65.03125 
Q 15.375 64.15625 9.8125 62.3125 
L 9.8125 71.09375 
Q 15.4375 72.65625 20.34375 73.4375 
Q 25.25 74.21875 29.59375 74.21875 
Q 40.828125 74.21875 47.359375 69.109375 
Q 53.90625 64.015625 53.90625 55.328125 
Q 53.90625 49.265625 50.4375 45.09375 
Q 46.96875 40.921875 40.578125 39.3125 
" id="DejaVuSans-33"/>
      </defs>
      <g transform="translate(205.963248 706.718438)scale(0.1 -0.1)">
       <use xlink:href="#DejaVuSans-33"/>
      </g>
     </g>
    </g>
    <g id="xtick_5">
     <g id="line2d_5">
      <g>
       <use style="stroke:#000000;stroke-width:0.8;" x="261.714833" xlink:href="#m66538e99a0" y="692.12"/>
      </g>
     </g>
     <g id="text_46">
      <!-- 4 -->
      <defs>
       <path d="M 37.796875 64.3125 
L 12.890625 25.390625 
L 37.796875 25.390625 
z
M 35.203125 72.90625 
L 47.609375 72.90625 
L 47.609375 25.390625 
L 58.015625 25.390625 
L 58.015625 17.1875 
L 47.609375 17.1875 
L 47.609375 0 
L 37.796875 0 
L 37.796875 17.1875 
L 4.890625 17.1875 
L 4.890625 26.703125 
z
" id="DejaVuSans-34"/>
      </defs>
      <g transform="translate(258.533583 706.718438)scale(0.1 -0.1)">
       <use xlink:href="#DejaVuSans-34"/>
      </g>
     </g>
    </g>
    <g id="xtick_6">
     <g id="line2d_6">
      <g>
       <use style="stroke:#000000;stroke-width:0.8;" x="314.285167" xlink:href="#m66538e99a0" y="692.12"/>
      </g>
     </g>
     <g id="text_47">
      <!-- 5 -->
      <defs>
       <path d="M 10.796875 72.90625 
L 49.515625 72.90625 
L 49.515625 64.59375 
L 19.828125 64.59375 
L 19.828125 46.734375 
Q 21.96875 47.46875 24.109375 47.828125 
Q 26.265625 48.1875 28.421875 48.1875 
Q 40.625 48.1875 47.75 41.5 
Q 54.890625 34.8125 54.890625 23.390625 
Q 54.890625 11.625 47.5625 5.09375 
Q 40.234375 -1.421875 26.90625 -1.421875 
Q 22.3125 -1.421875 17.546875 -0.640625 
Q 12.796875 0.140625 7.71875 1.703125 
L 7.71875 11.625 
Q 12.109375 9.234375 16.796875 8.0625 
Q 21.484375 6.890625 26.703125 6.890625 
Q 35.15625 6.890625 40.078125 11.328125 
Q 45.015625 15.765625 45.015625 23.390625 
Q 45.015625 31 40.078125 35.4375 
Q 35.15625 39.890625 26.703125 39.890625 
Q 22.75 39.890625 18.8125 39.015625 
Q 14.890625 38.140625 10.796875 36.28125 
z
" id="DejaVuSans-35"/>
      </defs>
      <g transform="translate(311.103917 706.718438)scale(0.1 -0.1)">
       <use xlink:href="#DejaVuSans-35"/>
      </g>
     </g>
    </g>
    <g id="xtick_7">
     <g id="line2d_7">
      <g>
       <use style="stroke:#000000;stroke-width:0.8;" x="366.855502" xlink:href="#m66538e99a0" y="692.12"/>
      </g>
     </g>
     <g id="text_48">
      <!-- 6 -->
      <defs>
       <path d="M 33.015625 40.375 
Q 26.375 40.375 22.484375 35.828125 
Q 18.609375 31.296875 18.609375 23.390625 
Q 18.609375 15.53125 22.484375 10.953125 
Q 26.375 6.390625 33.015625 6.390625 
Q 39.65625 6.390625 43.53125 10.953125 
Q 47.40625 15.53125 47.40625 23.390625 
Q 47.40625 31.296875 43.53125 35.828125 
Q 39.65625 40.375 33.015625 40.375 
M 52.59375 71.296875 
L 52.59375 62.3125 
Q 48.875 64.0625 45.09375 64.984375 
Q 41.3125 65.921875 37.59375 65.921875 
Q 27.828125 65.921875 22.671875 59.328125 
Q 17.53125 52.734375 16.796875 39.40625 
Q 19.671875 43.65625 24.015625 45.921875 
Q 28.375 48.1875 33.59375 48.1875 
Q 44.578125 48.1875 50.953125 41.515625 
Q 57.328125 34.859375 57.328125 23.390625 
Q 57.328125 12.15625 50.6875 5.359375 
Q 44.046875 -1.421875 33.015625 -1.421875 
Q 20.359375 -1.421875 13.671875 8.265625 
Q 6.984375 17.96875 6.984375 36.375 
Q 6.984375 53.65625 15.1875 63.9375 
Q 23.390625 74.21875 37.203125 74.21875 
Q 40.921875 74.21875 44.703125 73.484375 
Q 48.484375 72.75 52.59375 71.296875 
" id="DejaVuSans-36"/>
      </defs>
      <g transform="translate(363.674252 706.718438)scale(0.1 -0.1)">
       <use xlink:href="#DejaVuSans-36"/>
      </g>
     </g>
    </g>
    <g id="xtick_8">
     <g id="line2d_8">
      <g>
       <use style="stroke:#000000;stroke-width:0.8;" x="419.425837" xlink:href="#m66538e99a0" y="692.12"/>
      </g>
     </g>
     <g id="text_49">
      <!-- 7 -->
      <defs>
       <path d="M 8.203125 72.90625 
L 55.078125 72.90625 
L 55.078125 68.703125 
L 28.609375 0 
L 18.3125 0 
L 43.21875 64.59375 
L 8.203125 64.59375 
z
" id="DejaVuSans-37"/>
      </defs>
      <g transform="translate(416.244587 706.718438)scale(0.1 -0.1)">
       <use xlink:href="#DejaVuSans-37"/>
      </g>
     </g>
    </g>
    <g id="xtick_9">
     <g id="line2d_9">
      <g>
       <use style="stroke:#000000;stroke-width:0.8;" x="471.996172" xlink:href="#m66538e99a0" y="692.12"/>
      </g>
     </g>
     <g id="text_50">
      <!-- 8 -->
      <defs>
       <path d="M 31.78125 34.625 
Q 24.75 34.625 20.71875 30.859375 
Q 16.703125 27.09375 16.703125 20.515625 
Q 16.703125 13.921875 20.71875 10.15625 
Q 24.75 6.390625 31.78125 6.390625 
Q 38.8125 6.390625 42.859375 10.171875 
Q 46.921875 13.96875 46.921875 20.515625 
Q 46.921875 27.09375 42.890625 30.859375 
Q 38.875 34.625 31.78125 34.625 
M 21.921875 38.8125 
Q 15.578125 40.375 12.03125 44.71875 
Q 8.5 49.078125 8.5 55.328125 
Q 8.5 64.0625 14.71875 69.140625 
Q 20.953125 74.21875 31.78125 74.21875 
Q 42.671875 74.21875 48.875 69.140625 
Q 55.078125 64.0625 55.078125 55.328125 
Q 55.078125 49.078125 51.53125 44.71875 
Q 48 40.375 41.703125 38.8125 
Q 48.828125 37.15625 52.796875 32.3125 
Q 56.78125 27.484375 56.78125 20.515625 
Q 56.78125 9.90625 50.3125 4.234375 
Q 43.84375 -1.421875 31.78125 -1.421875 
Q 19.734375 -1.421875 13.25 4.234375 
Q 6.78125 9.90625 6.78125 20.515625 
Q 6.78125 27.484375 10.78125 32.3125 
Q 14.796875 37.15625 21.921875 38.8125 
M 18.3125 54.390625 
Q 18.3125 48.734375 21.84375 45.5625 
Q 25.390625 42.390625 31.78125 42.390625 
Q 38.140625 42.390625 41.71875 45.5625 
Q 45.3125 48.734375 45.3125 54.390625 
Q 45.3125 60.0625 41.71875 63.234375 
Q 38.140625 66.40625 31.78125 66.40625 
Q 25.390625 66.40625 21.84375 63.234375 
Q 18.3125 60.0625 18.3125 54.390625 
" id="DejaVuSans-38"/>
      </defs>
      <g transform="translate(468.814922 706.718438)scale(0.1 -0.1)">
       <use xlink:href="#DejaVuSans-38"/>
      </g>
     </g>
    </g>
    <g id="xtick_10">
     <g id="line2d_10">
      <g>
       <use style="stroke:#000000;stroke-width:0.8;" x="524.566507" xlink:href="#m66538e99a0" y="692.12"/>
      </g>
     </g>
     <g id="text_51">
      <!-- 9 -->
      <defs>
       <path d="M 10.984375 1.515625 
L 10.984375 10.5 
Q 14.703125 8.734375 18.5 7.8125 
Q 22.3125 6.890625 25.984375 6.890625 
Q 35.75 6.890625 40.890625 13.453125 
Q 46.046875 20.015625 46.78125 33.40625 
Q 43.953125 29.203125 39.59375 26.953125 
Q 35.25 24.703125 29.984375 24.703125 
Q 19.046875 24.703125 12.671875 31.3125 
Q 6.296875 37.9375 6.296875 49.421875 
Q 6.296875 60.640625 12.9375 67.421875 
Q 19.578125 74.21875 30.609375 74.21875 
Q 43.265625 74.21875 49.921875 64.515625 
Q 56.59375 54.828125 56.59375 36.375 
Q 56.59375 19.140625 48.40625 8.859375 
Q 40.234375 -1.421875 26.421875 -1.421875 
Q 22.703125 -1.421875 18.890625 -0.6875 
Q 15.09375 0.046875 10.984375 1.515625 
M 30.609375 32.421875 
Q 37.25 32.421875 41.125 36.953125 
Q 45.015625 41.5 45.015625 49.421875 
Q 45.015625 57.28125 41.125 61.84375 
Q 37.25 66.40625 30.609375 66.40625 
Q 23.96875 66.40625 20.09375 61.84375 
Q 16.21875 57.28125 16.21875 49.421875 
Q 16.21875 41.5 20.09375 36.953125 
Q 23.96875 32.421875 30.609375 32.421875 
" id="DejaVuSans-39"/>
      </defs>
      <g transform="translate(521.385257 706.718438)scale(0.1 -0.1)">
       <use xlink:href="#DejaVuSans-39"/>
      </g>
     </g>
    </g>
   </g>
   <g id="matplotlib.axis_2"/>
   <g id="patch_55">
    <path d="M 13.32 692.12 
L 13.32 26.88 
" style="fill:none;stroke:#000000;stroke-linecap:square;stroke-linejoin:miter;stroke-width:0.8;"/>
   </g>
   <g id="patch_56">
    <path d="M 562.68 692.12 
L 562.68 26.88 
" style="fill:none;stroke:#000000;stroke-linecap:square;stroke-linejoin:miter;stroke-width:0.8;"/>
   </g>
   <g id="patch_57">
    <path d="M 13.32 692.12 
L 562.68 692.12 
" style="fill:none;stroke:#000000;stroke-linecap:square;stroke-linejoin:miter;stroke-width:0.8;"/>
   </g>
   <g id="patch_58">
    <path d="M 13.32 26.88 
L 562.68 26.88 
" style="fill:none;stroke:#000000;stroke-linecap:square;stroke-linejoin:miter;stroke-width:0.8;"/>
   </g>
   <g id="text_52">
    <!-- Cluster 2 -->
    <g transform="translate(260.980312 20.88)scale(0.12 -0.12)">
     <use xlink:href="#DejaVuSans-43"/>
     <use x="69.824219" xlink:href="#DejaVuSans-6c"/>
     <use x="97.607422" xlink:href="#DejaVuSans-75"/>
     <use x="160.986328" xlink:href="#DejaVuSans-73"/>
     <use x="213.085938" xlink:href="#DejaVuSans-74"/>
     <use x="252.294922" xlink:href="#DejaVuSans-65"/>
     <use x="313.818359" xlink:href="#DejaVuSans-72"/>
     <use x="354.931641" xlink:href="#DejaVuSans-20"/>
     <use x="386.71875" xlink:href="#DejaVuSans-32"/>
    </g>
   </g>
   <g id="legend_1">
    <g id="patch_59">
     <path d="M 20.32 93.5925 
L 356.940312 93.5925 
Q 358.940312 93.5925 358.940312 91.5925 
L 358.940312 33.88 
Q 358.940312 31.88 356.940312 31.88 
L 20.32 31.88 
Q 18.32 31.88 18.32 33.88 
L 18.32 91.5925 
Q 18.32 93.5925 20.32 93.5925 
z
" style="fill:#ffffff;opacity:0.8;stroke:#cccccc;stroke-linejoin:miter;"/>
    </g>
    <g id="patch_60">
     <path d="M 22.32 43.478437 
L 42.32 43.478437 
L 42.32 36.478437 
L 22.32 36.478437 
z
" style="fill:#a50026;"/>
    </g>
    <g id="text_53">
     <!-- 0: Transition -->
     <defs>
      <path d="M 11.71875 12.40625 
L 22.015625 12.40625 
L 22.015625 0 
L 11.71875 0 
z
M 11.71875 51.703125 
L 22.015625 51.703125 
L 22.015625 39.3125 
L 11.71875 39.3125 
z
" id="DejaVuSans-3a"/>
     </defs>
     <g transform="translate(50.32 43.478437)scale(0.1 -0.1)">
      <use xlink:href="#DejaVuSans-30"/>
      <use x="63.623047" xlink:href="#DejaVuSans-3a"/>
      <use x="97.314453" xlink:href="#DejaVuSans-20"/>
      <use x="129.101562" xlink:href="#DejaVuSans-54"/>
      <use x="189.966797" xlink:href="#DejaVuSans-72"/>
      <use x="231.080078" xlink:href="#DejaVuSans-61"/>
      <use x="292.359375" xlink:href="#DejaVuSans-6e"/>
      <use x="355.738281" xlink:href="#DejaVuSans-73"/>
      <use x="407.837891" xlink:href="#DejaVuSans-69"/>
      <use x="435.621094" xlink:href="#DejaVuSans-74"/>
      <use x="474.830078" xlink:href="#DejaVuSans-69"/>
      <use x="502.613281" xlink:href="#DejaVuSans-6f"/>
      <use x="563.794922" xlink:href="#DejaVuSans-6e"/>
     </g>
    </g>
    <g id="patch_61">
     <path d="M 22.32 58.156562 
L 42.32 58.156562 
L 42.32 51.156562 
L 22.32 51.156562 
z
" style="fill:#da362a;"/>
    </g>
    <g id="text_54">
     <!-- 1: Isolation -->
     <g transform="translate(50.32 58.156562)scale(0.1 -0.1)">
      <use xlink:href="#DejaVuSans-31"/>
      <use x="63.623047" xlink:href="#DejaVuSans-3a"/>
      <use x="97.314453" xlink:href="#DejaVuSans-20"/>
      <use x="129.101562" xlink:href="#DejaVuSans-49"/>
      <use x="158.59375" xlink:href="#DejaVuSans-73"/>
      <use x="210.693359" xlink:href="#DejaVuSans-6f"/>
      <use x="271.875" xlink:href="#DejaVuSans-6c"/>
      <use x="299.658203" xlink:href="#DejaVuSans-61"/>
      <use x="360.9375" xlink:href="#DejaVuSans-74"/>
      <use x="400.146484" xlink:href="#DejaVuSans-69"/>
      <use x="427.929688" xlink:href="#DejaVuSans-6f"/>
      <use x="489.111328" xlink:href="#DejaVuSans-6e"/>
     </g>
    </g>
    <g id="patch_62">
     <path d="M 22.32 72.834687 
L 42.32 72.834687 
L 42.32 65.834687 
L 22.32 65.834687 
z
" style="fill:#f67a49;"/>
    </g>
    <g id="text_55">
     <!-- 2: PRBallHandler -->
     <g transform="translate(50.32 72.834687)scale(0.1 -0.1)">
      <use xlink:href="#DejaVuSans-32"/>
      <use x="63.623047" xlink:href="#DejaVuSans-3a"/>
      <use x="97.314453" xlink:href="#DejaVuSans-20"/>
      <use x="129.101562" xlink:href="#DejaVuSans-50"/>
      <use x="189.404297" xlink:href="#DejaVuSans-52"/>
      <use x="258.886719" xlink:href="#DejaVuSans-42"/>
      <use x="327.490234" xlink:href="#DejaVuSans-61"/>
      <use x="388.769531" xlink:href="#DejaVuSans-6c"/>
      <use x="416.552734" xlink:href="#DejaVuSans-6c"/>
      <use x="444.335938" xlink:href="#DejaVuSans-48"/>
      <use x="519.53125" xlink:href="#DejaVuSans-61"/>
      <use x="580.810547" xlink:href="#DejaVuSans-6e"/>
      <use x="644.189453" xlink:href="#DejaVuSans-64"/>
      <use x="707.666016" xlink:href="#DejaVuSans-6c"/>
      <use x="735.449219" xlink:href="#DejaVuSans-65"/>
      <use x="796.972656" xlink:href="#DejaVuSans-72"/>
     </g>
    </g>
    <g id="patch_63">
     <path d="M 22.32 87.512812 
L 42.32 87.512812 
L 42.32 80.512812 
L 22.32 80.512812 
z
" style="fill:#fdbf71;"/>
    </g>
    <g id="text_56">
     <!-- 3: PRRollman -->
     <g transform="translate(50.32 87.512812)scale(0.1 -0.1)">
      <use xlink:href="#DejaVuSans-33"/>
      <use x="63.623047" xlink:href="#DejaVuSans-3a"/>
      <use x="97.314453" xlink:href="#DejaVuSans-20"/>
      <use x="129.101562" xlink:href="#DejaVuSans-50"/>
      <use x="189.404297" xlink:href="#DejaVuSans-52"/>
      <use x="258.886719" xlink:href="#DejaVuSans-52"/>
      <use x="328.306641" xlink:href="#DejaVuSans-6f"/>
      <use x="389.488281" xlink:href="#DejaVuSans-6c"/>
      <use x="417.271484" xlink:href="#DejaVuSans-6c"/>
      <use x="445.054688" xlink:href="#DejaVuSans-6d"/>
      <use x="542.466797" xlink:href="#DejaVuSans-61"/>
      <use x="603.746094" xlink:href="#DejaVuSans-6e"/>
     </g>
    </g>
    <g id="patch_64">
     <path d="M 154.129375 43.478437 
L 174.129375 43.478437 
L 174.129375 36.478437 
L 154.129375 36.478437 
z
" style="fill:#feeda4;"/>
    </g>
    <g id="text_57">
     <!-- 4: Postup -->
     <g transform="translate(182.129375 43.478437)scale(0.1 -0.1)">
      <use xlink:href="#DejaVuSans-34"/>
      <use x="63.623047" xlink:href="#DejaVuSans-3a"/>
      <use x="97.314453" xlink:href="#DejaVuSans-20"/>
      <use x="129.101562" xlink:href="#DejaVuSans-50"/>
      <use x="189.357422" xlink:href="#DejaVuSans-6f"/>
      <use x="250.539062" xlink:href="#DejaVuSans-73"/>
      <use x="302.638672" xlink:href="#DejaVuSans-74"/>
      <use x="341.847656" xlink:href="#DejaVuSans-75"/>
      <use x="405.226562" xlink:href="#DejaVuSans-70"/>
     </g>
    </g>
    <g id="patch_65">
     <path d="M 154.129375 58.156562 
L 174.129375 58.156562 
L 174.129375 51.156562 
L 154.129375 51.156562 
z
" style="fill:#edf8df;"/>
    </g>
    <g id="text_58">
     <!-- 5: Spotup -->
     <g transform="translate(182.129375 58.156562)scale(0.1 -0.1)">
      <use xlink:href="#DejaVuSans-35"/>
      <use x="63.623047" xlink:href="#DejaVuSans-3a"/>
      <use x="97.314453" xlink:href="#DejaVuSans-20"/>
      <use x="129.101562" xlink:href="#DejaVuSans-53"/>
      <use x="192.578125" xlink:href="#DejaVuSans-70"/>
      <use x="256.054688" xlink:href="#DejaVuSans-6f"/>
      <use x="317.236328" xlink:href="#DejaVuSans-74"/>
      <use x="356.445312" xlink:href="#DejaVuSans-75"/>
      <use x="419.824219" xlink:href="#DejaVuSans-70"/>
     </g>
    </g>
    <g id="patch_66">
     <path d="M 154.129375 72.834687 
L 174.129375 72.834687 
L 174.129375 65.834687 
L 154.129375 65.834687 
z
" style="fill:#bde2ee;"/>
    </g>
    <g id="text_59">
     <!-- 6: Handoff -->
     <defs>
      <path d="M 37.109375 75.984375 
L 37.109375 68.5 
L 28.515625 68.5 
Q 23.6875 68.5 21.796875 66.546875 
Q 19.921875 64.59375 19.921875 59.515625 
L 19.921875 54.6875 
L 34.71875 54.6875 
L 34.71875 47.703125 
L 19.921875 47.703125 
L 19.921875 0 
L 10.890625 0 
L 10.890625 47.703125 
L 2.296875 47.703125 
L 2.296875 54.6875 
L 10.890625 54.6875 
L 10.890625 58.5 
Q 10.890625 67.625 15.140625 71.796875 
Q 19.390625 75.984375 28.609375 75.984375 
z
" id="DejaVuSans-66"/>
     </defs>
     <g transform="translate(182.129375 72.834687)scale(0.1 -0.1)">
      <use xlink:href="#DejaVuSans-36"/>
      <use x="63.623047" xlink:href="#DejaVuSans-3a"/>
      <use x="97.314453" xlink:href="#DejaVuSans-20"/>
      <use x="129.101562" xlink:href="#DejaVuSans-48"/>
      <use x="204.296875" xlink:href="#DejaVuSans-61"/>
      <use x="265.576172" xlink:href="#DejaVuSans-6e"/>
      <use x="328.955078" xlink:href="#DejaVuSans-64"/>
      <use x="392.431641" xlink:href="#DejaVuSans-6f"/>
      <use x="453.613281" xlink:href="#DejaVuSans-66"/>
      <use x="488.818359" xlink:href="#DejaVuSans-66"/>
     </g>
    </g>
    <g id="patch_67">
     <path d="M 254.5325 43.478437 
L 274.5325 43.478437 
L 274.5325 36.478437 
L 254.5325 36.478437 
z
" style="fill:#7fb6d6;"/>
    </g>
    <g id="text_60">
     <!-- 7: Cut -->
     <g transform="translate(282.5325 43.478437)scale(0.1 -0.1)">
      <use xlink:href="#DejaVuSans-37"/>
      <use x="63.623047" xlink:href="#DejaVuSans-3a"/>
      <use x="97.314453" xlink:href="#DejaVuSans-20"/>
      <use x="129.101562" xlink:href="#DejaVuSans-43"/>
      <use x="198.925781" xlink:href="#DejaVuSans-75"/>
      <use x="262.304688" xlink:href="#DejaVuSans-74"/>
     </g>
    </g>
    <g id="patch_68">
     <path d="M 254.5325 58.156562 
L 274.5325 58.156562 
L 274.5325 51.156562 
L 254.5325 51.156562 
z
" style="fill:#4a7ab7;"/>
    </g>
    <g id="text_61">
     <!-- 8: OffScreen -->
     <g transform="translate(282.5325 58.156562)scale(0.1 -0.1)">
      <use xlink:href="#DejaVuSans-38"/>
      <use x="63.623047" xlink:href="#DejaVuSans-3a"/>
      <use x="97.314453" xlink:href="#DejaVuSans-20"/>
      <use x="129.101562" xlink:href="#DejaVuSans-4f"/>
      <use x="207.8125" xlink:href="#DejaVuSans-66"/>
      <use x="243.017578" xlink:href="#DejaVuSans-66"/>
      <use x="278.222656" xlink:href="#DejaVuSans-53"/>
      <use x="341.699219" xlink:href="#DejaVuSans-63"/>
      <use x="396.679688" xlink:href="#DejaVuSans-72"/>
      <use x="437.761719" xlink:href="#DejaVuSans-65"/>
      <use x="499.285156" xlink:href="#DejaVuSans-65"/>
      <use x="560.808594" xlink:href="#DejaVuSans-6e"/>
     </g>
    </g>
    <g id="patch_69">
     <path d="M 254.5325 72.834687 
L 274.5325 72.834687 
L 274.5325 65.834687 
L 254.5325 65.834687 
z
" style="fill:#313695;"/>
    </g>
    <g id="text_62">
     <!-- 9: OffRebound -->
     <g transform="translate(282.5325 72.834687)scale(0.1 -0.1)">
      <use xlink:href="#DejaVuSans-39"/>
      <use x="63.623047" xlink:href="#DejaVuSans-3a"/>
      <use x="97.314453" xlink:href="#DejaVuSans-20"/>
      <use x="129.101562" xlink:href="#DejaVuSans-4f"/>
      <use x="207.8125" xlink:href="#DejaVuSans-66"/>
      <use x="243.017578" xlink:href="#DejaVuSans-66"/>
      <use x="278.222656" xlink:href="#DejaVuSans-52"/>
      <use x="347.642578" xlink:href="#DejaVuSans-65"/>
      <use x="409.166016" xlink:href="#DejaVuSans-62"/>
      <use x="472.642578" xlink:href="#DejaVuSans-6f"/>
      <use x="533.824219" xlink:href="#DejaVuSans-75"/>
      <use x="597.203125" xlink:href="#DejaVuSans-6e"/>
      <use x="660.582031" xlink:href="#DejaVuSans-64"/>
     </g>
    </g>
   </g>
  </g>
 </g>
 <defs>
  <clipPath id="p6c1993d1f5">
   <rect height="665.24" width="549.36" x="13.32" y="26.88"/>
  </clipPath>
 </defs>
</svg>
